<mxfile host="app.diagrams.net" modified="2020-11-24T18:04:07.645Z" agent="5.0 (Windows NT 10.0; Win64; x64) AppleWebKit/537.36 (KHTML, like Gecko) Chrome/86.0.4240.198 Safari/537.36" etag="muS9PlNEVF_SP1H2wfaj" version="13.10.2" type="github" pages="2">
  <diagram id="47_xUVu48802s1G55cAH" name="Ayah">
    <mxGraphModel dx="1552" dy="725" grid="1" gridSize="10" guides="1" tooltips="1" connect="1" arrows="1" fold="1" page="1" pageScale="1" pageWidth="1920" pageHeight="1200" math="0" shadow="0">
      <root>
        <mxCell id="0" />
        <mxCell id="1" parent="0" />
        <mxCell id="9qAJUaaw6qXColUqVFIn-278" value="Nama Ayah : M&lt;b&gt;eswanto&lt;/b&gt;" style="text;html=1;align=center;verticalAlign=middle;resizable=0;points=[];autosize=1;fontSize=16;" vertex="1" parent="1">
          <mxGeometry x="65" y="50" width="190" height="20" as="geometry" />
        </mxCell>
        <mxCell id="9qAJUaaw6qXColUqVFIn-279" value="A" style="rounded=0;whiteSpace=wrap;html=1;fontSize=16;" vertex="1" parent="1">
          <mxGeometry x="70" y="90" width="40" height="40" as="geometry" />
        </mxCell>
        <mxCell id="9qAJUaaw6qXColUqVFIn-280" value="E" style="rounded=0;whiteSpace=wrap;html=1;fontSize=16;" vertex="1" parent="1">
          <mxGeometry x="70" y="130" width="40" height="40" as="geometry" />
        </mxCell>
        <mxCell id="9qAJUaaw6qXColUqVFIn-281" value="M" style="rounded=0;whiteSpace=wrap;html=1;fontSize=16;" vertex="1" parent="1">
          <mxGeometry x="70" y="170" width="40" height="40" as="geometry" />
        </mxCell>
        <mxCell id="9qAJUaaw6qXColUqVFIn-282" value="N" style="rounded=0;whiteSpace=wrap;html=1;fontSize=16;" vertex="1" parent="1">
          <mxGeometry x="70" y="210" width="40" height="40" as="geometry" />
        </mxCell>
        <mxCell id="9qAJUaaw6qXColUqVFIn-283" value="O" style="rounded=0;whiteSpace=wrap;html=1;fontSize=16;" vertex="1" parent="1">
          <mxGeometry x="70" y="250" width="40" height="40" as="geometry" />
        </mxCell>
        <mxCell id="9qAJUaaw6qXColUqVFIn-284" value="S" style="rounded=0;whiteSpace=wrap;html=1;fontSize=16;" vertex="1" parent="1">
          <mxGeometry x="70" y="290" width="40" height="40" as="geometry" />
        </mxCell>
        <mxCell id="9qAJUaaw6qXColUqVFIn-285" value="T" style="rounded=0;whiteSpace=wrap;html=1;fontSize=16;" vertex="1" parent="1">
          <mxGeometry x="70" y="330" width="40" height="40" as="geometry" />
        </mxCell>
        <mxCell id="9qAJUaaw6qXColUqVFIn-286" value="W" style="rounded=0;whiteSpace=wrap;html=1;fontSize=16;" vertex="1" parent="1">
          <mxGeometry x="70" y="370" width="40" height="40" as="geometry" />
        </mxCell>
        <mxCell id="9qAJUaaw6qXColUqVFIn-287" value="" style="rounded=0;orthogonalLoop=1;jettySize=auto;html=1;entryX=0;entryY=0.5;entryDx=0;entryDy=0;" edge="1" source="9qAJUaaw6qXColUqVFIn-288" target="9qAJUaaw6qXColUqVFIn-306" parent="1">
          <mxGeometry relative="1" as="geometry" />
        </mxCell>
        <mxCell id="9qAJUaaw6qXColUqVFIn-288" value="1" style="rounded=0;whiteSpace=wrap;html=1;fontSize=16;fillColor=#f5f5f5;strokeColor=#666666;fontColor=#333333;" vertex="1" parent="1">
          <mxGeometry x="110" y="90" width="40" height="40" as="geometry" />
        </mxCell>
        <mxCell id="9qAJUaaw6qXColUqVFIn-289" value="" style="edgeStyle=none;rounded=0;orthogonalLoop=1;jettySize=auto;html=1;entryX=0;entryY=0.5;entryDx=0;entryDy=0;" edge="1" source="9qAJUaaw6qXColUqVFIn-290" target="9qAJUaaw6qXColUqVFIn-308" parent="1">
          <mxGeometry relative="1" as="geometry" />
        </mxCell>
        <mxCell id="9qAJUaaw6qXColUqVFIn-290" value="1" style="rounded=0;whiteSpace=wrap;html=1;fontSize=16;fillColor=#d5e8d4;strokeColor=#82b366;" vertex="1" parent="1">
          <mxGeometry x="110" y="130" width="40" height="40" as="geometry" />
        </mxCell>
        <mxCell id="9qAJUaaw6qXColUqVFIn-291" value="" style="edgeStyle=none;rounded=0;orthogonalLoop=1;jettySize=auto;html=1;entryX=0;entryY=0.5;entryDx=0;entryDy=0;" edge="1" source="9qAJUaaw6qXColUqVFIn-292" target="9qAJUaaw6qXColUqVFIn-310" parent="1">
          <mxGeometry relative="1" as="geometry" />
        </mxCell>
        <mxCell id="9qAJUaaw6qXColUqVFIn-292" value="1" style="rounded=0;whiteSpace=wrap;html=1;fontSize=16;" vertex="1" parent="1">
          <mxGeometry x="110" y="170" width="40" height="40" as="geometry" />
        </mxCell>
        <mxCell id="9qAJUaaw6qXColUqVFIn-293" value="" style="edgeStyle=none;rounded=0;orthogonalLoop=1;jettySize=auto;html=1;entryX=0;entryY=0.5;entryDx=0;entryDy=0;" edge="1" source="9qAJUaaw6qXColUqVFIn-294" target="9qAJUaaw6qXColUqVFIn-318" parent="1">
          <mxGeometry relative="1" as="geometry">
            <mxPoint x="230" y="240" as="targetPoint" />
          </mxGeometry>
        </mxCell>
        <mxCell id="9qAJUaaw6qXColUqVFIn-294" value="1" style="rounded=0;whiteSpace=wrap;html=1;fontSize=16;fillColor=#ffe6cc;strokeColor=#d79b00;" vertex="1" parent="1">
          <mxGeometry x="110" y="210" width="40" height="40" as="geometry" />
        </mxCell>
        <mxCell id="9qAJUaaw6qXColUqVFIn-295" value="" style="edgeStyle=none;rounded=0;orthogonalLoop=1;jettySize=auto;html=1;entryX=0;entryY=0.5;entryDx=0;entryDy=0;" edge="1" source="9qAJUaaw6qXColUqVFIn-296" target="9qAJUaaw6qXColUqVFIn-311" parent="1">
          <mxGeometry relative="1" as="geometry" />
        </mxCell>
        <mxCell id="9qAJUaaw6qXColUqVFIn-296" value="1" style="rounded=0;whiteSpace=wrap;html=1;fontSize=16;fillColor=#e1d5e7;strokeColor=#9673a6;" vertex="1" parent="1">
          <mxGeometry x="110" y="250" width="40" height="40" as="geometry" />
        </mxCell>
        <mxCell id="9qAJUaaw6qXColUqVFIn-297" value="" style="edgeStyle=none;rounded=0;orthogonalLoop=1;jettySize=auto;html=1;" edge="1" source="9qAJUaaw6qXColUqVFIn-298" target="9qAJUaaw6qXColUqVFIn-313" parent="1">
          <mxGeometry relative="1" as="geometry" />
        </mxCell>
        <mxCell id="9qAJUaaw6qXColUqVFIn-298" value="1" style="rounded=0;whiteSpace=wrap;html=1;fontSize=16;fillColor=#f8cecc;strokeColor=#b85450;" vertex="1" parent="1">
          <mxGeometry x="110" y="290" width="40" height="40" as="geometry" />
        </mxCell>
        <mxCell id="9qAJUaaw6qXColUqVFIn-299" value="" style="edgeStyle=orthogonalEdgeStyle;rounded=0;orthogonalLoop=1;jettySize=auto;html=1;" edge="1" source="9qAJUaaw6qXColUqVFIn-300" target="9qAJUaaw6qXColUqVFIn-304" parent="1">
          <mxGeometry relative="1" as="geometry" />
        </mxCell>
        <mxCell id="9qAJUaaw6qXColUqVFIn-300" value="1" style="rounded=0;whiteSpace=wrap;html=1;fontSize=16;fillColor=#dae8fc;strokeColor=#6c8ebf;" vertex="1" parent="1">
          <mxGeometry x="110" y="330" width="40" height="40" as="geometry" />
        </mxCell>
        <mxCell id="9qAJUaaw6qXColUqVFIn-301" value="" style="edgeStyle=orthogonalEdgeStyle;rounded=0;orthogonalLoop=1;jettySize=auto;html=1;" edge="1" source="9qAJUaaw6qXColUqVFIn-302" target="9qAJUaaw6qXColUqVFIn-304" parent="1">
          <mxGeometry relative="1" as="geometry" />
        </mxCell>
        <mxCell id="9qAJUaaw6qXColUqVFIn-302" value="1" style="rounded=0;whiteSpace=wrap;html=1;fontSize=16;fillColor=#f5f5f5;strokeColor=#666666;fontColor=#333333;" vertex="1" parent="1">
          <mxGeometry x="110" y="370" width="40" height="40" as="geometry" />
        </mxCell>
        <mxCell id="9qAJUaaw6qXColUqVFIn-303" value="" style="edgeStyle=none;rounded=0;orthogonalLoop=1;jettySize=auto;html=1;entryX=0;entryY=0.5;entryDx=0;entryDy=0;exitX=1;exitY=0.5;exitDx=0;exitDy=0;" edge="1" source="9qAJUaaw6qXColUqVFIn-304" parent="1">
          <mxGeometry relative="1" as="geometry">
            <mxPoint x="270" y="310" as="targetPoint" />
          </mxGeometry>
        </mxCell>
        <mxCell id="9qAJUaaw6qXColUqVFIn-304" value="2" style="rounded=0;whiteSpace=wrap;html=1;fontSize=16;fillColor=#dae8fc;strokeColor=#6c8ebf;" vertex="1" parent="1">
          <mxGeometry x="190" y="350" width="40" height="40" as="geometry" />
        </mxCell>
        <mxCell id="9qAJUaaw6qXColUqVFIn-305" value="" style="edgeStyle=none;rounded=0;orthogonalLoop=1;jettySize=auto;html=1;entryX=0;entryY=0.5;entryDx=0;entryDy=0;" edge="1" source="9qAJUaaw6qXColUqVFIn-306" target="9qAJUaaw6qXColUqVFIn-343" parent="1">
          <mxGeometry relative="1" as="geometry" />
        </mxCell>
        <mxCell id="9qAJUaaw6qXColUqVFIn-306" value="1" style="rounded=0;whiteSpace=wrap;html=1;fontSize=16;fillColor=#f5f5f5;strokeColor=#666666;fontColor=#333333;" vertex="1" parent="1">
          <mxGeometry x="590" y="90" width="40" height="40" as="geometry" />
        </mxCell>
        <mxCell id="9qAJUaaw6qXColUqVFIn-307" value="" style="edgeStyle=none;rounded=0;orthogonalLoop=1;jettySize=auto;html=1;entryX=0;entryY=0.5;entryDx=0;entryDy=0;" edge="1" source="9qAJUaaw6qXColUqVFIn-308" target="9qAJUaaw6qXColUqVFIn-337" parent="1">
          <mxGeometry relative="1" as="geometry" />
        </mxCell>
        <mxCell id="9qAJUaaw6qXColUqVFIn-308" value="1" style="rounded=0;whiteSpace=wrap;html=1;fontSize=16;fillColor=#d5e8d4;strokeColor=#82b366;" vertex="1" parent="1">
          <mxGeometry x="510" y="130" width="40" height="40" as="geometry" />
        </mxCell>
        <mxCell id="9qAJUaaw6qXColUqVFIn-309" value="" style="edgeStyle=none;rounded=0;orthogonalLoop=1;jettySize=auto;html=1;entryX=0;entryY=0.5;entryDx=0;entryDy=0;exitX=1;exitY=0.5;exitDx=0;exitDy=0;" edge="1" source="9qAJUaaw6qXColUqVFIn-310" target="9qAJUaaw6qXColUqVFIn-332" parent="1">
          <mxGeometry relative="1" as="geometry" />
        </mxCell>
        <mxCell id="9qAJUaaw6qXColUqVFIn-310" value="1" style="rounded=0;whiteSpace=wrap;html=1;fontSize=16;" vertex="1" parent="1">
          <mxGeometry x="430" y="170" width="40" height="40" as="geometry" />
        </mxCell>
        <mxCell id="9qAJUaaw6qXColUqVFIn-311" value="1" style="rounded=0;whiteSpace=wrap;html=1;fontSize=16;fillColor=#e1d5e7;strokeColor=#9673a6;" vertex="1" parent="1">
          <mxGeometry x="270" y="250" width="40" height="40" as="geometry" />
        </mxCell>
        <mxCell id="9qAJUaaw6qXColUqVFIn-312" value="" style="edgeStyle=none;rounded=0;orthogonalLoop=1;jettySize=auto;html=1;entryX=0;entryY=0.5;entryDx=0;entryDy=0;" edge="1" source="9qAJUaaw6qXColUqVFIn-313" parent="1">
          <mxGeometry relative="1" as="geometry">
            <mxPoint x="270" y="370" as="targetPoint" />
          </mxGeometry>
        </mxCell>
        <mxCell id="9qAJUaaw6qXColUqVFIn-313" value="1" style="rounded=0;whiteSpace=wrap;html=1;fontSize=16;fillColor=#f8cecc;strokeColor=#b85450;" vertex="1" parent="1">
          <mxGeometry x="190" y="290" width="40" height="40" as="geometry" />
        </mxCell>
        <mxCell id="9qAJUaaw6qXColUqVFIn-314" value="" style="edgeStyle=none;rounded=0;orthogonalLoop=1;jettySize=auto;html=1;" edge="1" parent="1">
          <mxGeometry relative="1" as="geometry">
            <mxPoint x="310" y="280" as="sourcePoint" />
            <mxPoint x="350" y="300" as="targetPoint" />
          </mxGeometry>
        </mxCell>
        <mxCell id="9qAJUaaw6qXColUqVFIn-315" value="" style="edgeStyle=none;rounded=0;orthogonalLoop=1;jettySize=auto;html=1;entryX=0;entryY=0.5;entryDx=0;entryDy=0;exitX=1;exitY=0.5;exitDx=0;exitDy=0;" edge="1" source="9qAJUaaw6qXColUqVFIn-316" parent="1">
          <mxGeometry relative="1" as="geometry">
            <mxPoint x="350" y="270" as="targetPoint" />
          </mxGeometry>
        </mxCell>
        <mxCell id="9qAJUaaw6qXColUqVFIn-316" value="2" style="rounded=0;whiteSpace=wrap;html=1;fontSize=16;fillColor=#dae8fc;strokeColor=#6c8ebf;" vertex="1" parent="1">
          <mxGeometry x="270" y="290" width="40" height="40" as="geometry" />
        </mxCell>
        <mxCell id="9qAJUaaw6qXColUqVFIn-317" value="" style="edgeStyle=none;rounded=0;orthogonalLoop=1;jettySize=auto;html=1;entryX=0;entryY=0.5;entryDx=0;entryDy=0;exitX=1;exitY=0.5;exitDx=0;exitDy=0;" edge="1" source="9qAJUaaw6qXColUqVFIn-318" target="9qAJUaaw6qXColUqVFIn-326" parent="1">
          <mxGeometry relative="1" as="geometry" />
        </mxCell>
        <mxCell id="9qAJUaaw6qXColUqVFIn-318" value="1" style="rounded=0;whiteSpace=wrap;html=1;fontSize=16;fillColor=#ffe6cc;strokeColor=#d79b00;" vertex="1" parent="1">
          <mxGeometry x="350" y="210" width="40" height="40" as="geometry" />
        </mxCell>
        <mxCell id="9qAJUaaw6qXColUqVFIn-319" value="" style="edgeStyle=none;rounded=0;orthogonalLoop=1;jettySize=auto;html=1;entryX=0;entryY=0.5;entryDx=0;entryDy=0;exitX=1;exitY=0.5;exitDx=0;exitDy=0;" edge="1" source="9qAJUaaw6qXColUqVFIn-320" target="9qAJUaaw6qXColUqVFIn-324" parent="1">
          <mxGeometry relative="1" as="geometry" />
        </mxCell>
        <mxCell id="9qAJUaaw6qXColUqVFIn-320" value="2" style="rounded=0;whiteSpace=wrap;html=1;fontSize=16;fillColor=#dae8fc;strokeColor=#6c8ebf;" vertex="1" parent="1">
          <mxGeometry x="350" y="250" width="40" height="40" as="geometry" />
        </mxCell>
        <mxCell id="9qAJUaaw6qXColUqVFIn-321" value="" style="edgeStyle=none;rounded=0;orthogonalLoop=1;jettySize=auto;html=1;" edge="1" source="9qAJUaaw6qXColUqVFIn-322" target="9qAJUaaw6qXColUqVFIn-328" parent="1">
          <mxGeometry relative="1" as="geometry" />
        </mxCell>
        <mxCell id="9qAJUaaw6qXColUqVFIn-322" value="1" style="rounded=0;whiteSpace=wrap;html=1;fontSize=16;fillColor=#e1d5e7;strokeColor=#9673a6;" vertex="1" parent="1">
          <mxGeometry x="350" y="290" width="40" height="40" as="geometry" />
        </mxCell>
        <mxCell id="9qAJUaaw6qXColUqVFIn-323" value="" style="edgeStyle=none;rounded=0;orthogonalLoop=1;jettySize=auto;html=1;entryX=0;entryY=0.5;entryDx=0;entryDy=0;exitX=1;exitY=0.5;exitDx=0;exitDy=0;" edge="1" source="9qAJUaaw6qXColUqVFIn-324" target="9qAJUaaw6qXColUqVFIn-330" parent="1">
          <mxGeometry relative="1" as="geometry" />
        </mxCell>
        <mxCell id="9qAJUaaw6qXColUqVFIn-324" value="2" style="rounded=0;whiteSpace=wrap;html=1;fontSize=16;fillColor=#dae8fc;strokeColor=#6c8ebf;" vertex="1" parent="1">
          <mxGeometry x="430" y="210" width="40" height="40" as="geometry" />
        </mxCell>
        <mxCell id="9qAJUaaw6qXColUqVFIn-325" value="" style="edgeStyle=none;rounded=0;orthogonalLoop=1;jettySize=auto;html=1;" edge="1" source="9qAJUaaw6qXColUqVFIn-326" target="9qAJUaaw6qXColUqVFIn-333" parent="1">
          <mxGeometry relative="1" as="geometry" />
        </mxCell>
        <mxCell id="9qAJUaaw6qXColUqVFIn-326" value="1" style="rounded=0;whiteSpace=wrap;html=1;fontSize=16;fillColor=#ffe6cc;strokeColor=#d79b00;" vertex="1" parent="1">
          <mxGeometry x="430" y="250" width="40" height="40" as="geometry" />
        </mxCell>
        <mxCell id="9qAJUaaw6qXColUqVFIn-327" value="" style="edgeStyle=orthogonalEdgeStyle;rounded=0;orthogonalLoop=1;jettySize=auto;html=1;entryX=0;entryY=0.5;entryDx=0;entryDy=0;" edge="1" source="9qAJUaaw6qXColUqVFIn-328" target="9qAJUaaw6qXColUqVFIn-349" parent="1">
          <mxGeometry relative="1" as="geometry" />
        </mxCell>
        <mxCell id="9qAJUaaw6qXColUqVFIn-328" value="1" style="rounded=0;whiteSpace=wrap;html=1;fontSize=16;fillColor=#e1d5e7;strokeColor=#9673a6;" vertex="1" parent="1">
          <mxGeometry x="430" y="290" width="40" height="40" as="geometry" />
        </mxCell>
        <mxCell id="9qAJUaaw6qXColUqVFIn-329" value="" style="edgeStyle=none;rounded=0;orthogonalLoop=1;jettySize=auto;html=1;entryX=0;entryY=0.5;entryDx=0;entryDy=0;exitX=1;exitY=0.5;exitDx=0;exitDy=0;" edge="1" source="9qAJUaaw6qXColUqVFIn-330" target="9qAJUaaw6qXColUqVFIn-335" parent="1">
          <mxGeometry relative="1" as="geometry" />
        </mxCell>
        <mxCell id="9qAJUaaw6qXColUqVFIn-330" value="2" style="rounded=0;whiteSpace=wrap;html=1;fontSize=16;fillColor=#dae8fc;strokeColor=#6c8ebf;" vertex="1" parent="1">
          <mxGeometry x="510" y="170" width="40" height="40" as="geometry" />
        </mxCell>
        <mxCell id="9qAJUaaw6qXColUqVFIn-331" value="" style="edgeStyle=none;rounded=0;orthogonalLoop=1;jettySize=auto;html=1;" edge="1" source="9qAJUaaw6qXColUqVFIn-332" target="9qAJUaaw6qXColUqVFIn-339" parent="1">
          <mxGeometry relative="1" as="geometry" />
        </mxCell>
        <mxCell id="9qAJUaaw6qXColUqVFIn-332" value="1" style="rounded=0;whiteSpace=wrap;html=1;fontSize=16;" vertex="1" parent="1">
          <mxGeometry x="510" y="210" width="40" height="40" as="geometry" />
        </mxCell>
        <mxCell id="9qAJUaaw6qXColUqVFIn-333" value="1" style="rounded=0;whiteSpace=wrap;html=1;fontSize=16;fillColor=#ffe6cc;strokeColor=#d79b00;" vertex="1" parent="1">
          <mxGeometry x="510" y="250" width="40" height="40" as="geometry" />
        </mxCell>
        <mxCell id="9qAJUaaw6qXColUqVFIn-334" value="" style="edgeStyle=none;rounded=0;orthogonalLoop=1;jettySize=auto;html=1;entryX=0;entryY=0.5;entryDx=0;entryDy=0;" edge="1" target="9qAJUaaw6qXColUqVFIn-341" parent="1">
          <mxGeometry relative="1" as="geometry">
            <mxPoint x="630" y="150" as="sourcePoint" />
          </mxGeometry>
        </mxCell>
        <mxCell id="9qAJUaaw6qXColUqVFIn-335" value="2" style="rounded=0;whiteSpace=wrap;html=1;fontSize=16;fillColor=#dae8fc;strokeColor=#6c8ebf;" vertex="1" parent="1">
          <mxGeometry x="590" y="130" width="40" height="40" as="geometry" />
        </mxCell>
        <mxCell id="9qAJUaaw6qXColUqVFIn-336" value="" style="edgeStyle=none;rounded=0;orthogonalLoop=1;jettySize=auto;html=1;entryX=0;entryY=0.5;entryDx=0;entryDy=0;" edge="1" source="9qAJUaaw6qXColUqVFIn-337" target="9qAJUaaw6qXColUqVFIn-355" parent="1">
          <mxGeometry relative="1" as="geometry" />
        </mxCell>
        <mxCell id="9qAJUaaw6qXColUqVFIn-337" value="1" style="rounded=0;whiteSpace=wrap;html=1;fontSize=16;fillColor=#d5e8d4;strokeColor=#82b366;" vertex="1" parent="1">
          <mxGeometry x="590" y="170" width="40" height="40" as="geometry" />
        </mxCell>
        <mxCell id="9qAJUaaw6qXColUqVFIn-338" value="" style="edgeStyle=none;rounded=0;orthogonalLoop=1;jettySize=auto;html=1;entryX=0;entryY=0.5;entryDx=0;entryDy=0;" edge="1" source="9qAJUaaw6qXColUqVFIn-339" target="9qAJUaaw6qXColUqVFIn-364" parent="1">
          <mxGeometry relative="1" as="geometry" />
        </mxCell>
        <mxCell id="9qAJUaaw6qXColUqVFIn-339" value="1" style="rounded=0;whiteSpace=wrap;html=1;fontSize=16;" vertex="1" parent="1">
          <mxGeometry x="590" y="210" width="40" height="40" as="geometry" />
        </mxCell>
        <mxCell id="9qAJUaaw6qXColUqVFIn-340" value="" style="edgeStyle=none;rounded=0;orthogonalLoop=1;jettySize=auto;html=1;" edge="1" source="9qAJUaaw6qXColUqVFIn-341" target="9qAJUaaw6qXColUqVFIn-351" parent="1">
          <mxGeometry relative="1" as="geometry" />
        </mxCell>
        <mxCell id="9qAJUaaw6qXColUqVFIn-341" value="2" style="rounded=0;whiteSpace=wrap;html=1;fontSize=16;fillColor=#dae8fc;strokeColor=#6c8ebf;" vertex="1" parent="1">
          <mxGeometry x="670" y="90" width="40" height="40" as="geometry" />
        </mxCell>
        <mxCell id="9qAJUaaw6qXColUqVFIn-342" value="" style="edgeStyle=none;rounded=0;orthogonalLoop=1;jettySize=auto;html=1;entryX=0;entryY=0.5;entryDx=0;entryDy=0;" edge="1" source="9qAJUaaw6qXColUqVFIn-343" target="9qAJUaaw6qXColUqVFIn-353" parent="1">
          <mxGeometry relative="1" as="geometry" />
        </mxCell>
        <mxCell id="9qAJUaaw6qXColUqVFIn-343" value="1" style="rounded=0;whiteSpace=wrap;html=1;fontSize=16;fillColor=#f5f5f5;strokeColor=#666666;fontColor=#333333;" vertex="1" parent="1">
          <mxGeometry x="670" y="130" width="40" height="40" as="geometry" />
        </mxCell>
        <mxCell id="9qAJUaaw6qXColUqVFIn-344" value="" style="edgeStyle=none;rounded=0;orthogonalLoop=1;jettySize=auto;html=1;" edge="1" source="9qAJUaaw6qXColUqVFIn-345" target="9qAJUaaw6qXColUqVFIn-347" parent="1">
          <mxGeometry relative="1" as="geometry" />
        </mxCell>
        <mxCell id="9qAJUaaw6qXColUqVFIn-345" value="1" style="rounded=0;whiteSpace=wrap;html=1;fontSize=16;fillColor=#f8cecc;strokeColor=#b85450;" vertex="1" parent="1">
          <mxGeometry x="270" y="350" width="40" height="40" as="geometry" />
        </mxCell>
        <mxCell id="9qAJUaaw6qXColUqVFIn-346" value="" style="edgeStyle=orthogonalEdgeStyle;rounded=0;orthogonalLoop=1;jettySize=auto;html=1;" edge="1" source="9qAJUaaw6qXColUqVFIn-347" target="9qAJUaaw6qXColUqVFIn-349" parent="1">
          <mxGeometry relative="1" as="geometry" />
        </mxCell>
        <mxCell id="9qAJUaaw6qXColUqVFIn-347" value="1" style="rounded=0;whiteSpace=wrap;html=1;fontSize=16;fillColor=#f8cecc;strokeColor=#b85450;" vertex="1" parent="1">
          <mxGeometry x="430" y="350" width="40" height="40" as="geometry" />
        </mxCell>
        <mxCell id="9qAJUaaw6qXColUqVFIn-348" value="" style="edgeStyle=none;rounded=0;orthogonalLoop=1;jettySize=auto;html=1;entryX=0;entryY=0.5;entryDx=0;entryDy=0;exitX=1;exitY=0.5;exitDx=0;exitDy=0;" edge="1" source="9qAJUaaw6qXColUqVFIn-349" target="9qAJUaaw6qXColUqVFIn-358" parent="1">
          <mxGeometry relative="1" as="geometry" />
        </mxCell>
        <mxCell id="9qAJUaaw6qXColUqVFIn-349" value="2" style="rounded=0;whiteSpace=wrap;html=1;fontSize=16;fillColor=#e1d5e7;strokeColor=#9673a6;" vertex="1" parent="1">
          <mxGeometry x="510" y="320" width="40" height="40" as="geometry" />
        </mxCell>
        <mxCell id="9qAJUaaw6qXColUqVFIn-350" value="" style="edgeStyle=none;rounded=0;orthogonalLoop=1;jettySize=auto;html=1;entryX=0;entryY=0.5;entryDx=0;entryDy=0;exitX=1;exitY=0.5;exitDx=0;exitDy=0;" edge="1" source="9qAJUaaw6qXColUqVFIn-351" target="9qAJUaaw6qXColUqVFIn-408" parent="1">
          <mxGeometry relative="1" as="geometry" />
        </mxCell>
        <mxCell id="9qAJUaaw6qXColUqVFIn-351" value="2" style="rounded=0;whiteSpace=wrap;html=1;fontSize=16;fillColor=#dae8fc;strokeColor=#6c8ebf;" vertex="1" parent="1">
          <mxGeometry x="1310" y="90" width="40" height="40" as="geometry" />
        </mxCell>
        <mxCell id="9qAJUaaw6qXColUqVFIn-352" value="" style="edgeStyle=none;rounded=0;orthogonalLoop=1;jettySize=auto;html=1;entryX=0;entryY=0.5;entryDx=0;entryDy=0;exitX=1;exitY=0.5;exitDx=0;exitDy=0;" edge="1" source="9qAJUaaw6qXColUqVFIn-353" target="9qAJUaaw6qXColUqVFIn-374" parent="1">
          <mxGeometry relative="1" as="geometry" />
        </mxCell>
        <mxCell id="9qAJUaaw6qXColUqVFIn-353" value="1" style="rounded=0;whiteSpace=wrap;html=1;fontSize=16;fillColor=#f5f5f5;strokeColor=#666666;fontColor=#333333;" vertex="1" parent="1">
          <mxGeometry x="750" y="130" width="40" height="40" as="geometry" />
        </mxCell>
        <mxCell id="9qAJUaaw6qXColUqVFIn-354" value="" style="edgeStyle=none;rounded=0;orthogonalLoop=1;jettySize=auto;html=1;entryX=0;entryY=0.5;entryDx=0;entryDy=0;" edge="1" source="9qAJUaaw6qXColUqVFIn-355" target="9qAJUaaw6qXColUqVFIn-368" parent="1">
          <mxGeometry relative="1" as="geometry" />
        </mxCell>
        <mxCell id="9qAJUaaw6qXColUqVFIn-355" value="1" style="rounded=0;whiteSpace=wrap;html=1;fontSize=16;fillColor=#d5e8d4;strokeColor=#82b366;" vertex="1" parent="1">
          <mxGeometry x="670" y="170" width="40" height="40" as="geometry" />
        </mxCell>
        <mxCell id="9qAJUaaw6qXColUqVFIn-356" value="" style="edgeStyle=none;rounded=0;orthogonalLoop=1;jettySize=auto;html=1;entryX=0;entryY=0.5;entryDx=0;entryDy=0;exitX=1;exitY=0.5;exitDx=0;exitDy=0;" edge="1" source="9qAJUaaw6qXColUqVFIn-333" target="9qAJUaaw6qXColUqVFIn-360" parent="1">
          <mxGeometry relative="1" as="geometry">
            <mxPoint x="590" y="290" as="sourcePoint" />
          </mxGeometry>
        </mxCell>
        <mxCell id="9qAJUaaw6qXColUqVFIn-357" value="" style="edgeStyle=none;rounded=0;orthogonalLoop=1;jettySize=auto;html=1;entryX=0;entryY=0.5;entryDx=0;entryDy=0;exitX=1;exitY=0.5;exitDx=0;exitDy=0;" edge="1" source="9qAJUaaw6qXColUqVFIn-358" target="9qAJUaaw6qXColUqVFIn-362" parent="1">
          <mxGeometry relative="1" as="geometry" />
        </mxCell>
        <mxCell id="9qAJUaaw6qXColUqVFIn-358" value="2" style="rounded=0;whiteSpace=wrap;html=1;fontSize=16;fillColor=#e1d5e7;strokeColor=#9673a6;" vertex="1" parent="1">
          <mxGeometry x="590" y="250" width="40" height="40" as="geometry" />
        </mxCell>
        <mxCell id="9qAJUaaw6qXColUqVFIn-359" value="" style="edgeStyle=none;rounded=0;orthogonalLoop=1;jettySize=auto;html=1;" edge="1" source="9qAJUaaw6qXColUqVFIn-360" target="9qAJUaaw6qXColUqVFIn-376" parent="1">
          <mxGeometry relative="1" as="geometry" />
        </mxCell>
        <mxCell id="9qAJUaaw6qXColUqVFIn-360" value="1" style="rounded=0;whiteSpace=wrap;html=1;fontSize=16;fillColor=#ffe6cc;strokeColor=#d79b00;" vertex="1" parent="1">
          <mxGeometry x="590" y="320" width="40" height="40" as="geometry" />
        </mxCell>
        <mxCell id="9qAJUaaw6qXColUqVFIn-361" value="" style="edgeStyle=none;rounded=0;orthogonalLoop=1;jettySize=auto;html=1;entryX=0;entryY=0.5;entryDx=0;entryDy=0;" edge="1" target="9qAJUaaw6qXColUqVFIn-366" parent="1">
          <mxGeometry relative="1" as="geometry">
            <mxPoint x="710" y="230" as="sourcePoint" />
          </mxGeometry>
        </mxCell>
        <mxCell id="9qAJUaaw6qXColUqVFIn-362" value="2" style="rounded=0;whiteSpace=wrap;html=1;fontSize=16;fillColor=#e1d5e7;strokeColor=#9673a6;" vertex="1" parent="1">
          <mxGeometry x="670" y="210" width="40" height="40" as="geometry" />
        </mxCell>
        <mxCell id="9qAJUaaw6qXColUqVFIn-363" value="" style="edgeStyle=none;rounded=0;orthogonalLoop=1;jettySize=auto;html=1;" edge="1" source="9qAJUaaw6qXColUqVFIn-364" target="9qAJUaaw6qXColUqVFIn-370" parent="1">
          <mxGeometry relative="1" as="geometry" />
        </mxCell>
        <mxCell id="9qAJUaaw6qXColUqVFIn-364" value="1" style="rounded=0;whiteSpace=wrap;html=1;fontSize=16;" vertex="1" parent="1">
          <mxGeometry x="670" y="250" width="40" height="40" as="geometry" />
        </mxCell>
        <mxCell id="9qAJUaaw6qXColUqVFIn-365" value="" style="rounded=0;orthogonalLoop=1;jettySize=auto;html=1;entryX=0;entryY=0.75;entryDx=0;entryDy=0;" edge="1" target="9qAJUaaw6qXColUqVFIn-372" parent="1">
          <mxGeometry relative="1" as="geometry">
            <mxPoint x="790" y="190" as="sourcePoint" />
          </mxGeometry>
        </mxCell>
        <mxCell id="9qAJUaaw6qXColUqVFIn-366" value="2" style="rounded=0;whiteSpace=wrap;html=1;fontSize=16;fillColor=#e1d5e7;strokeColor=#9673a6;" vertex="1" parent="1">
          <mxGeometry x="750" y="170" width="40" height="40" as="geometry" />
        </mxCell>
        <mxCell id="9qAJUaaw6qXColUqVFIn-367" value="" style="edgeStyle=none;rounded=0;orthogonalLoop=1;jettySize=auto;html=1;entryX=0;entryY=0.5;entryDx=0;entryDy=0;" edge="1" source="9qAJUaaw6qXColUqVFIn-368" target="9qAJUaaw6qXColUqVFIn-380" parent="1">
          <mxGeometry relative="1" as="geometry" />
        </mxCell>
        <mxCell id="9qAJUaaw6qXColUqVFIn-368" value="1" style="rounded=0;whiteSpace=wrap;html=1;fontSize=16;fillColor=#d5e8d4;strokeColor=#82b366;" vertex="1" parent="1">
          <mxGeometry x="750" y="210" width="40" height="40" as="geometry" />
        </mxCell>
        <mxCell id="9qAJUaaw6qXColUqVFIn-369" value="" style="edgeStyle=orthogonalEdgeStyle;rounded=0;orthogonalLoop=1;jettySize=auto;html=1;" edge="1" source="9qAJUaaw6qXColUqVFIn-370" target="9qAJUaaw6qXColUqVFIn-382" parent="1">
          <mxGeometry relative="1" as="geometry" />
        </mxCell>
        <mxCell id="9qAJUaaw6qXColUqVFIn-370" value="1" style="rounded=0;whiteSpace=wrap;html=1;fontSize=16;" vertex="1" parent="1">
          <mxGeometry x="830" y="250" width="40" height="40" as="geometry" />
        </mxCell>
        <mxCell id="9qAJUaaw6qXColUqVFIn-371" value="" style="edgeStyle=none;rounded=0;orthogonalLoop=1;jettySize=auto;html=1;entryX=0;entryY=0.5;entryDx=0;entryDy=0;" edge="1" source="9qAJUaaw6qXColUqVFIn-372" target="9qAJUaaw6qXColUqVFIn-377" parent="1">
          <mxGeometry relative="1" as="geometry" />
        </mxCell>
        <mxCell id="9qAJUaaw6qXColUqVFIn-372" value="2" style="rounded=0;whiteSpace=wrap;html=1;fontSize=16;fillColor=#e1d5e7;strokeColor=#9673a6;" vertex="1" parent="1">
          <mxGeometry x="830" y="130" width="40" height="40" as="geometry" />
        </mxCell>
        <mxCell id="9qAJUaaw6qXColUqVFIn-373" value="" style="edgeStyle=none;rounded=0;orthogonalLoop=1;jettySize=auto;html=1;entryX=0;entryY=0.5;entryDx=0;entryDy=0;" edge="1" source="9qAJUaaw6qXColUqVFIn-374" target="9qAJUaaw6qXColUqVFIn-379" parent="1">
          <mxGeometry relative="1" as="geometry">
            <mxPoint x="900" y="190" as="targetPoint" />
          </mxGeometry>
        </mxCell>
        <mxCell id="9qAJUaaw6qXColUqVFIn-374" value="1" style="rounded=0;whiteSpace=wrap;html=1;fontSize=16;fillColor=#f5f5f5;strokeColor=#666666;fontColor=#333333;" vertex="1" parent="1">
          <mxGeometry x="830" y="170" width="40" height="40" as="geometry" />
        </mxCell>
        <mxCell id="9qAJUaaw6qXColUqVFIn-375" value="" style="edgeStyle=orthogonalEdgeStyle;rounded=0;orthogonalLoop=1;jettySize=auto;html=1;" edge="1" source="9qAJUaaw6qXColUqVFIn-376" target="9qAJUaaw6qXColUqVFIn-382" parent="1">
          <mxGeometry relative="1" as="geometry" />
        </mxCell>
        <mxCell id="9qAJUaaw6qXColUqVFIn-376" value="1" style="rounded=0;whiteSpace=wrap;html=1;fontSize=16;fillColor=#ffe6cc;strokeColor=#d79b00;" vertex="1" parent="1">
          <mxGeometry x="830" y="320" width="40" height="40" as="geometry" />
        </mxCell>
        <mxCell id="9qAJUaaw6qXColUqVFIn-377" value="2" style="rounded=0;whiteSpace=wrap;html=1;fontSize=16;fillColor=#e1d5e7;strokeColor=#9673a6;" vertex="1" parent="1">
          <mxGeometry x="1230" y="130" width="40" height="40" as="geometry" />
        </mxCell>
        <mxCell id="9qAJUaaw6qXColUqVFIn-378" value="" style="edgeStyle=none;rounded=0;orthogonalLoop=1;jettySize=auto;html=1;entryX=0;entryY=0.5;entryDx=0;entryDy=0;exitX=1;exitY=0.5;exitDx=0;exitDy=0;" edge="1" source="9qAJUaaw6qXColUqVFIn-379" target="9qAJUaaw6qXColUqVFIn-391" parent="1">
          <mxGeometry relative="1" as="geometry" />
        </mxCell>
        <mxCell id="9qAJUaaw6qXColUqVFIn-379" value="1" style="rounded=0;whiteSpace=wrap;html=1;fontSize=16;fillColor=#f5f5f5;strokeColor=#666666;fontColor=#333333;" vertex="1" parent="1">
          <mxGeometry x="990" y="170" width="40" height="40" as="geometry" />
        </mxCell>
        <mxCell id="9qAJUaaw6qXColUqVFIn-380" value="1" style="rounded=0;whiteSpace=wrap;html=1;fontSize=16;fillColor=#d5e8d4;strokeColor=#82b366;" vertex="1" parent="1">
          <mxGeometry x="910" y="210" width="40" height="40" as="geometry" />
        </mxCell>
        <mxCell id="9qAJUaaw6qXColUqVFIn-381" value="" style="edgeStyle=none;rounded=0;orthogonalLoop=1;jettySize=auto;html=1;entryX=0;entryY=0.5;entryDx=0;entryDy=0;exitX=1;exitY=0.5;exitDx=0;exitDy=0;" edge="1" source="9qAJUaaw6qXColUqVFIn-382" target="9qAJUaaw6qXColUqVFIn-385" parent="1">
          <mxGeometry relative="1" as="geometry" />
        </mxCell>
        <mxCell id="9qAJUaaw6qXColUqVFIn-382" value="2" style="rounded=0;whiteSpace=wrap;html=1;fontSize=16;" vertex="1" parent="1">
          <mxGeometry x="910" y="290" width="40" height="40" as="geometry" />
        </mxCell>
        <mxCell id="9qAJUaaw6qXColUqVFIn-383" value="" style="edgeStyle=none;rounded=0;orthogonalLoop=1;jettySize=auto;html=1;entryX=0;entryY=0.5;entryDx=0;entryDy=0;exitX=1;exitY=0.5;exitDx=0;exitDy=0;" edge="1" target="9qAJUaaw6qXColUqVFIn-387" parent="1">
          <mxGeometry relative="1" as="geometry">
            <mxPoint x="950" y="230" as="sourcePoint" />
          </mxGeometry>
        </mxCell>
        <mxCell id="9qAJUaaw6qXColUqVFIn-384" value="" style="edgeStyle=none;rounded=0;orthogonalLoop=1;jettySize=auto;html=1;entryX=0;entryY=0.5;entryDx=0;entryDy=0;exitX=1;exitY=0.5;exitDx=0;exitDy=0;" edge="1" source="9qAJUaaw6qXColUqVFIn-385" target="9qAJUaaw6qXColUqVFIn-389" parent="1">
          <mxGeometry relative="1" as="geometry" />
        </mxCell>
        <mxCell id="9qAJUaaw6qXColUqVFIn-385" value="2" style="rounded=0;whiteSpace=wrap;html=1;fontSize=16;" vertex="1" parent="1">
          <mxGeometry x="990" y="210" width="40" height="40" as="geometry" />
        </mxCell>
        <mxCell id="9qAJUaaw6qXColUqVFIn-386" value="" style="edgeStyle=none;rounded=0;orthogonalLoop=1;jettySize=auto;html=1;" edge="1" source="9qAJUaaw6qXColUqVFIn-387" target="9qAJUaaw6qXColUqVFIn-393" parent="1">
          <mxGeometry relative="1" as="geometry" />
        </mxCell>
        <mxCell id="9qAJUaaw6qXColUqVFIn-387" value="1" style="rounded=0;whiteSpace=wrap;html=1;fontSize=16;fillColor=#d5e8d4;strokeColor=#82b366;" vertex="1" parent="1">
          <mxGeometry x="990" y="290" width="40" height="40" as="geometry" />
        </mxCell>
        <mxCell id="9qAJUaaw6qXColUqVFIn-388" value="" style="edgeStyle=orthogonalEdgeStyle;rounded=0;orthogonalLoop=1;jettySize=auto;html=1;" edge="1" source="9qAJUaaw6qXColUqVFIn-389" target="9qAJUaaw6qXColUqVFIn-397" parent="1">
          <mxGeometry relative="1" as="geometry" />
        </mxCell>
        <mxCell id="9qAJUaaw6qXColUqVFIn-389" value="2" style="rounded=0;whiteSpace=wrap;html=1;fontSize=16;" vertex="1" parent="1">
          <mxGeometry x="1070" y="170" width="40" height="40" as="geometry" />
        </mxCell>
        <mxCell id="9qAJUaaw6qXColUqVFIn-390" value="" style="edgeStyle=orthogonalEdgeStyle;rounded=0;orthogonalLoop=1;jettySize=auto;html=1;" edge="1" source="9qAJUaaw6qXColUqVFIn-391" target="9qAJUaaw6qXColUqVFIn-395" parent="1">
          <mxGeometry relative="1" as="geometry" />
        </mxCell>
        <mxCell id="9qAJUaaw6qXColUqVFIn-391" value="1" style="rounded=0;whiteSpace=wrap;html=1;fontSize=16;fillColor=#f5f5f5;strokeColor=#666666;fontColor=#333333;" vertex="1" parent="1">
          <mxGeometry x="1070" y="210" width="40" height="40" as="geometry" />
        </mxCell>
        <mxCell id="9qAJUaaw6qXColUqVFIn-392" value="" style="edgeStyle=orthogonalEdgeStyle;rounded=0;orthogonalLoop=1;jettySize=auto;html=1;" edge="1" source="9qAJUaaw6qXColUqVFIn-393" target="9qAJUaaw6qXColUqVFIn-395" parent="1">
          <mxGeometry relative="1" as="geometry" />
        </mxCell>
        <mxCell id="9qAJUaaw6qXColUqVFIn-393" value="1" style="rounded=0;whiteSpace=wrap;html=1;fontSize=16;fillColor=#d5e8d4;strokeColor=#82b366;" vertex="1" parent="1">
          <mxGeometry x="1070" y="290" width="40" height="40" as="geometry" />
        </mxCell>
        <mxCell id="9qAJUaaw6qXColUqVFIn-394" value="" style="edgeStyle=orthogonalEdgeStyle;rounded=0;orthogonalLoop=1;jettySize=auto;html=1;" edge="1" source="9qAJUaaw6qXColUqVFIn-395" target="9qAJUaaw6qXColUqVFIn-399" parent="1">
          <mxGeometry relative="1" as="geometry" />
        </mxCell>
        <mxCell id="9qAJUaaw6qXColUqVFIn-395" value="2" style="rounded=0;whiteSpace=wrap;html=1;fontSize=16;fillColor=#d5e8d4;strokeColor=#82b366;" vertex="1" parent="1">
          <mxGeometry x="1150" y="250" width="40" height="40" as="geometry" />
        </mxCell>
        <mxCell id="9qAJUaaw6qXColUqVFIn-396" value="" style="edgeStyle=orthogonalEdgeStyle;rounded=0;orthogonalLoop=1;jettySize=auto;html=1;" edge="1" source="9qAJUaaw6qXColUqVFIn-397" target="9qAJUaaw6qXColUqVFIn-399" parent="1">
          <mxGeometry relative="1" as="geometry" />
        </mxCell>
        <mxCell id="9qAJUaaw6qXColUqVFIn-397" value="2" style="rounded=0;whiteSpace=wrap;html=1;fontSize=16;" vertex="1" parent="1">
          <mxGeometry x="1150" y="170" width="40" height="40" as="geometry" />
        </mxCell>
        <mxCell id="9qAJUaaw6qXColUqVFIn-398" value="" style="edgeStyle=none;rounded=0;orthogonalLoop=1;jettySize=auto;html=1;entryX=0;entryY=0.5;entryDx=0;entryDy=0;exitX=1;exitY=0.5;exitDx=0;exitDy=0;" edge="1" source="9qAJUaaw6qXColUqVFIn-399" target="9qAJUaaw6qXColUqVFIn-402" parent="1">
          <mxGeometry relative="1" as="geometry" />
        </mxCell>
        <mxCell id="9qAJUaaw6qXColUqVFIn-399" value="4" style="rounded=0;whiteSpace=wrap;html=1;fontSize=16;" vertex="1" parent="1">
          <mxGeometry x="1230" y="210" width="40" height="40" as="geometry" />
        </mxCell>
        <mxCell id="9qAJUaaw6qXColUqVFIn-400" value="" style="edgeStyle=none;rounded=0;orthogonalLoop=1;jettySize=auto;html=1;entryX=0;entryY=0.5;entryDx=0;entryDy=0;exitX=1;exitY=0.5;exitDx=0;exitDy=0;" edge="1" target="9qAJUaaw6qXColUqVFIn-404" parent="1">
          <mxGeometry relative="1" as="geometry">
            <mxPoint x="1270" y="150" as="sourcePoint" />
          </mxGeometry>
        </mxCell>
        <mxCell id="9qAJUaaw6qXColUqVFIn-401" value="" style="edgeStyle=none;rounded=0;orthogonalLoop=1;jettySize=auto;html=1;entryX=0;entryY=0.5;entryDx=0;entryDy=0;" edge="1" source="9qAJUaaw6qXColUqVFIn-402" target="9qAJUaaw6qXColUqVFIn-406" parent="1">
          <mxGeometry relative="1" as="geometry" />
        </mxCell>
        <mxCell id="9qAJUaaw6qXColUqVFIn-402" value="4" style="rounded=0;whiteSpace=wrap;html=1;fontSize=16;" vertex="1" parent="1">
          <mxGeometry x="1310" y="130" width="40" height="40" as="geometry" />
        </mxCell>
        <mxCell id="9qAJUaaw6qXColUqVFIn-403" value="" style="edgeStyle=none;rounded=0;orthogonalLoop=1;jettySize=auto;html=1;" edge="1" source="9qAJUaaw6qXColUqVFIn-404" target="9qAJUaaw6qXColUqVFIn-410" parent="1">
          <mxGeometry relative="1" as="geometry" />
        </mxCell>
        <mxCell id="9qAJUaaw6qXColUqVFIn-404" value="2" style="rounded=0;whiteSpace=wrap;html=1;fontSize=16;fillColor=#e1d5e7;strokeColor=#9673a6;" vertex="1" parent="1">
          <mxGeometry x="1310" y="210" width="40" height="40" as="geometry" />
        </mxCell>
        <mxCell id="9qAJUaaw6qXColUqVFIn-405" value="" style="edgeStyle=orthogonalEdgeStyle;rounded=0;orthogonalLoop=1;jettySize=auto;html=1;" edge="1" source="9qAJUaaw6qXColUqVFIn-406" target="9qAJUaaw6qXColUqVFIn-414" parent="1">
          <mxGeometry relative="1" as="geometry" />
        </mxCell>
        <mxCell id="9qAJUaaw6qXColUqVFIn-406" value="4" style="rounded=0;whiteSpace=wrap;html=1;fontSize=16;" vertex="1" parent="1">
          <mxGeometry x="1390" y="90" width="40" height="40" as="geometry" />
        </mxCell>
        <mxCell id="9qAJUaaw6qXColUqVFIn-407" value="" style="edgeStyle=orthogonalEdgeStyle;rounded=0;orthogonalLoop=1;jettySize=auto;html=1;" edge="1" source="9qAJUaaw6qXColUqVFIn-408" target="9qAJUaaw6qXColUqVFIn-412" parent="1">
          <mxGeometry relative="1" as="geometry" />
        </mxCell>
        <mxCell id="9qAJUaaw6qXColUqVFIn-408" value="2" style="rounded=0;whiteSpace=wrap;html=1;fontSize=16;fillColor=#dae8fc;strokeColor=#6c8ebf;" vertex="1" parent="1">
          <mxGeometry x="1390" y="130" width="40" height="40" as="geometry" />
        </mxCell>
        <mxCell id="9qAJUaaw6qXColUqVFIn-409" value="" style="edgeStyle=orthogonalEdgeStyle;rounded=0;orthogonalLoop=1;jettySize=auto;html=1;" edge="1" source="9qAJUaaw6qXColUqVFIn-410" target="9qAJUaaw6qXColUqVFIn-412" parent="1">
          <mxGeometry relative="1" as="geometry" />
        </mxCell>
        <mxCell id="9qAJUaaw6qXColUqVFIn-410" value="2" style="rounded=0;whiteSpace=wrap;html=1;fontSize=16;fillColor=#e1d5e7;strokeColor=#9673a6;" vertex="1" parent="1">
          <mxGeometry x="1390" y="210" width="40" height="40" as="geometry" />
        </mxCell>
        <mxCell id="9qAJUaaw6qXColUqVFIn-411" value="" style="edgeStyle=orthogonalEdgeStyle;rounded=0;orthogonalLoop=1;jettySize=auto;html=1;" edge="1" source="9qAJUaaw6qXColUqVFIn-412" target="9qAJUaaw6qXColUqVFIn-415" parent="1">
          <mxGeometry relative="1" as="geometry" />
        </mxCell>
        <mxCell id="9qAJUaaw6qXColUqVFIn-412" value="4" style="rounded=0;whiteSpace=wrap;html=1;fontSize=16;fillColor=#dae8fc;strokeColor=#6c8ebf;" vertex="1" parent="1">
          <mxGeometry x="1470" y="170" width="40" height="40" as="geometry" />
        </mxCell>
        <mxCell id="9qAJUaaw6qXColUqVFIn-413" value="" style="edgeStyle=orthogonalEdgeStyle;rounded=0;orthogonalLoop=1;jettySize=auto;html=1;" edge="1" source="9qAJUaaw6qXColUqVFIn-414" target="9qAJUaaw6qXColUqVFIn-415" parent="1">
          <mxGeometry relative="1" as="geometry" />
        </mxCell>
        <mxCell id="9qAJUaaw6qXColUqVFIn-414" value="4" style="rounded=0;whiteSpace=wrap;html=1;fontSize=16;" vertex="1" parent="1">
          <mxGeometry x="1470" y="90" width="40" height="40" as="geometry" />
        </mxCell>
        <mxCell id="9qAJUaaw6qXColUqVFIn-415" value="8" style="rounded=0;whiteSpace=wrap;html=1;fontSize=16;fillColor=#d5e8d4;strokeColor=#82b366;" vertex="1" parent="1">
          <mxGeometry x="1550" y="130" width="40" height="40" as="geometry" />
        </mxCell>
        <mxCell id="9qAJUaaw6qXColUqVFIn-416" value="&lt;span style=&quot;font-size: 15px&quot;&gt;0&lt;/span&gt;" style="text;html=1;align=center;verticalAlign=middle;resizable=0;points=[];autosize=1;" vertex="1" parent="1">
          <mxGeometry x="150" y="330" width="20" height="20" as="geometry" />
        </mxCell>
        <mxCell id="9qAJUaaw6qXColUqVFIn-417" value="&lt;span style=&quot;font-size: 15px&quot;&gt;1&lt;/span&gt;" style="text;html=1;align=center;verticalAlign=middle;resizable=0;points=[];autosize=1;" vertex="1" parent="1">
          <mxGeometry x="150" y="390" width="20" height="20" as="geometry" />
        </mxCell>
        <mxCell id="9qAJUaaw6qXColUqVFIn-418" value="&lt;span style=&quot;font-size: 15px&quot;&gt;1&lt;/span&gt;" style="text;html=1;align=center;verticalAlign=middle;resizable=0;points=[];autosize=1;" vertex="1" parent="1">
          <mxGeometry x="470" y="380" width="20" height="20" as="geometry" />
        </mxCell>
        <mxCell id="9qAJUaaw6qXColUqVFIn-419" value="&lt;span style=&quot;font-size: 15px&quot;&gt;1&lt;/span&gt;" style="text;html=1;align=center;verticalAlign=middle;resizable=0;points=[];autosize=1;" vertex="1" parent="1">
          <mxGeometry x="870" y="350" width="20" height="20" as="geometry" />
        </mxCell>
        <mxCell id="9qAJUaaw6qXColUqVFIn-420" value="&lt;span style=&quot;font-size: 15px&quot;&gt;1&lt;/span&gt;" style="text;html=1;align=center;verticalAlign=middle;resizable=0;points=[];autosize=1;" vertex="1" parent="1">
          <mxGeometry x="1110" y="320" width="20" height="20" as="geometry" />
        </mxCell>
        <mxCell id="9qAJUaaw6qXColUqVFIn-421" value="&lt;span style=&quot;font-size: 15px&quot;&gt;1&lt;/span&gt;" style="text;html=1;align=center;verticalAlign=middle;resizable=0;points=[];autosize=1;" vertex="1" parent="1">
          <mxGeometry x="1200" y="270" width="20" height="20" as="geometry" />
        </mxCell>
        <mxCell id="9qAJUaaw6qXColUqVFIn-422" value="&lt;span style=&quot;font-size: 15px&quot;&gt;1&lt;/span&gt;" style="text;html=1;align=center;verticalAlign=middle;resizable=0;points=[];autosize=1;" vertex="1" parent="1">
          <mxGeometry x="1430" y="240" width="20" height="20" as="geometry" />
        </mxCell>
        <mxCell id="9qAJUaaw6qXColUqVFIn-423" value="&lt;span style=&quot;font-size: 15px&quot;&gt;1&lt;/span&gt;" style="text;html=1;align=center;verticalAlign=middle;resizable=0;points=[];autosize=1;" vertex="1" parent="1">
          <mxGeometry x="1510" y="190" width="20" height="20" as="geometry" />
        </mxCell>
        <mxCell id="9qAJUaaw6qXColUqVFIn-424" value="&lt;span style=&quot;font-size: 15px&quot;&gt;0&lt;/span&gt;" style="text;html=1;align=center;verticalAlign=middle;resizable=0;points=[];autosize=1;" vertex="1" parent="1">
          <mxGeometry x="470" y="290" width="20" height="20" as="geometry" />
        </mxCell>
        <mxCell id="9qAJUaaw6qXColUqVFIn-425" value="&lt;span style=&quot;font-size: 15px&quot;&gt;0&lt;/span&gt;" style="text;html=1;align=center;verticalAlign=middle;resizable=0;points=[];autosize=1;" vertex="1" parent="1">
          <mxGeometry x="870" y="250" width="20" height="20" as="geometry" />
        </mxCell>
        <mxCell id="9qAJUaaw6qXColUqVFIn-426" value="&lt;span style=&quot;font-size: 15px&quot;&gt;0&lt;/span&gt;" style="text;html=1;align=center;verticalAlign=middle;resizable=0;points=[];autosize=1;" vertex="1" parent="1">
          <mxGeometry x="1110" y="210" width="20" height="20" as="geometry" />
        </mxCell>
        <mxCell id="9qAJUaaw6qXColUqVFIn-427" value="&lt;span style=&quot;font-size: 15px&quot;&gt;0&lt;/span&gt;" style="text;html=1;align=center;verticalAlign=middle;resizable=0;points=[];autosize=1;" vertex="1" parent="1">
          <mxGeometry x="1430" y="130" width="20" height="20" as="geometry" />
        </mxCell>
        <mxCell id="9qAJUaaw6qXColUqVFIn-428" value="&lt;span style=&quot;font-size: 15px&quot;&gt;0&lt;/span&gt;" style="text;html=1;align=center;verticalAlign=middle;resizable=0;points=[];autosize=1;" vertex="1" parent="1">
          <mxGeometry x="1510" y="90" width="20" height="20" as="geometry" />
        </mxCell>
        <mxCell id="9qAJUaaw6qXColUqVFIn-429" value="&lt;span style=&quot;font-size: 15px&quot;&gt;0&lt;/span&gt;" style="text;html=1;align=center;verticalAlign=middle;resizable=0;points=[];autosize=1;" vertex="1" parent="1">
          <mxGeometry x="1190" y="170" width="20" height="20" as="geometry" />
        </mxCell>
        <mxCell id="9qAJUaaw6qXColUqVFIn-438" value="010" style="rounded=0;whiteSpace=wrap;html=1;fontSize=16;fillColor=#f5f5f5;strokeColor=#666666;fontColor=#333333;" vertex="1" parent="1">
          <mxGeometry x="110" y="450" width="40" height="40" as="geometry" />
        </mxCell>
        <mxCell id="9qAJUaaw6qXColUqVFIn-439" value="011" style="rounded=0;whiteSpace=wrap;html=1;fontSize=16;fillColor=#d5e8d4;strokeColor=#82b366;" vertex="1" parent="1">
          <mxGeometry x="110" y="490" width="40" height="40" as="geometry" />
        </mxCell>
        <mxCell id="9qAJUaaw6qXColUqVFIn-440" value="000" style="rounded=0;whiteSpace=wrap;html=1;fontSize=16;" vertex="1" parent="1">
          <mxGeometry x="110" y="530" width="40" height="40" as="geometry" />
        </mxCell>
        <mxCell id="9qAJUaaw6qXColUqVFIn-441" value="001" style="rounded=0;whiteSpace=wrap;html=1;fontSize=16;fillColor=#ffe6cc;strokeColor=#d79b00;" vertex="1" parent="1">
          <mxGeometry x="110" y="570" width="40" height="40" as="geometry" />
        </mxCell>
        <mxCell id="9qAJUaaw6qXColUqVFIn-442" value="110" style="rounded=0;whiteSpace=wrap;html=1;fontSize=16;fillColor=#e1d5e7;strokeColor=#9673a6;" vertex="1" parent="1">
          <mxGeometry x="110" y="610" width="40" height="40" as="geometry" />
        </mxCell>
        <mxCell id="9qAJUaaw6qXColUqVFIn-443" value="111" style="rounded=0;whiteSpace=wrap;html=1;fontSize=16;fillColor=#f8cecc;strokeColor=#b85450;" vertex="1" parent="1">
          <mxGeometry x="110" y="650" width="40" height="40" as="geometry" />
        </mxCell>
        <mxCell id="9qAJUaaw6qXColUqVFIn-444" value="100" style="rounded=0;whiteSpace=wrap;html=1;fontSize=16;fillColor=#dae8fc;strokeColor=#6c8ebf;" vertex="1" parent="1">
          <mxGeometry x="110" y="690" width="40" height="40" as="geometry" />
        </mxCell>
        <mxCell id="9qAJUaaw6qXColUqVFIn-445" value="101" style="rounded=0;whiteSpace=wrap;html=1;fontSize=16;fillColor=#f5f5f5;strokeColor=#666666;fontColor=#333333;" vertex="1" parent="1">
          <mxGeometry x="110" y="730" width="40" height="40" as="geometry" />
        </mxCell>
        <mxCell id="9qAJUaaw6qXColUqVFIn-446" value="3" style="rounded=0;whiteSpace=wrap;html=1;fontSize=16;" vertex="1" parent="1">
          <mxGeometry x="150" y="450" width="40" height="40" as="geometry" />
        </mxCell>
        <mxCell id="9qAJUaaw6qXColUqVFIn-447" value="3" style="rounded=0;whiteSpace=wrap;html=1;fontSize=16;" vertex="1" parent="1">
          <mxGeometry x="150" y="490" width="40" height="40" as="geometry" />
        </mxCell>
        <mxCell id="9qAJUaaw6qXColUqVFIn-448" value="3" style="rounded=0;whiteSpace=wrap;html=1;fontSize=16;" vertex="1" parent="1">
          <mxGeometry x="150" y="530" width="40" height="40" as="geometry" />
        </mxCell>
        <mxCell id="9qAJUaaw6qXColUqVFIn-449" value="3" style="rounded=0;whiteSpace=wrap;html=1;fontSize=16;" vertex="1" parent="1">
          <mxGeometry x="150" y="570" width="40" height="40" as="geometry" />
        </mxCell>
        <mxCell id="9qAJUaaw6qXColUqVFIn-450" value="3" style="rounded=0;whiteSpace=wrap;html=1;fontSize=16;" vertex="1" parent="1">
          <mxGeometry x="150" y="610" width="40" height="40" as="geometry" />
        </mxCell>
        <mxCell id="9qAJUaaw6qXColUqVFIn-451" value="3" style="rounded=0;whiteSpace=wrap;html=1;fontSize=16;" vertex="1" parent="1">
          <mxGeometry x="150" y="650" width="40" height="40" as="geometry" />
        </mxCell>
        <mxCell id="9qAJUaaw6qXColUqVFIn-452" value="3" style="rounded=0;whiteSpace=wrap;html=1;fontSize=16;" vertex="1" parent="1">
          <mxGeometry x="150" y="690" width="40" height="40" as="geometry" />
        </mxCell>
        <mxCell id="9qAJUaaw6qXColUqVFIn-453" value="3" style="rounded=0;whiteSpace=wrap;html=1;fontSize=16;" vertex="1" parent="1">
          <mxGeometry x="150" y="730" width="40" height="40" as="geometry" />
        </mxCell>
        <mxCell id="9qAJUaaw6qXColUqVFIn-454" value="1" style="rounded=0;whiteSpace=wrap;html=1;fontSize=16;fillColor=#f5f5f5;strokeColor=#666666;fontColor=#333333;" vertex="1" parent="1">
          <mxGeometry x="190" y="450" width="40" height="40" as="geometry" />
        </mxCell>
        <mxCell id="9qAJUaaw6qXColUqVFIn-455" value="1" style="rounded=0;whiteSpace=wrap;html=1;fontSize=16;fillColor=#d5e8d4;strokeColor=#82b366;" vertex="1" parent="1">
          <mxGeometry x="190" y="490" width="40" height="40" as="geometry" />
        </mxCell>
        <mxCell id="9qAJUaaw6qXColUqVFIn-456" value="1" style="rounded=0;whiteSpace=wrap;html=1;fontSize=16;" vertex="1" parent="1">
          <mxGeometry x="190" y="530" width="40" height="40" as="geometry" />
        </mxCell>
        <mxCell id="9qAJUaaw6qXColUqVFIn-457" value="1" style="rounded=0;whiteSpace=wrap;html=1;fontSize=16;fillColor=#ffe6cc;strokeColor=#d79b00;" vertex="1" parent="1">
          <mxGeometry x="190" y="570" width="40" height="40" as="geometry" />
        </mxCell>
        <mxCell id="9qAJUaaw6qXColUqVFIn-458" value="1" style="rounded=0;whiteSpace=wrap;html=1;fontSize=16;fillColor=#e1d5e7;strokeColor=#9673a6;" vertex="1" parent="1">
          <mxGeometry x="190" y="610" width="40" height="40" as="geometry" />
        </mxCell>
        <mxCell id="9qAJUaaw6qXColUqVFIn-459" value="1" style="rounded=0;whiteSpace=wrap;html=1;fontSize=16;fillColor=#f8cecc;strokeColor=#b85450;" vertex="1" parent="1">
          <mxGeometry x="190" y="650" width="40" height="40" as="geometry" />
        </mxCell>
        <mxCell id="9qAJUaaw6qXColUqVFIn-460" value="1" style="rounded=0;whiteSpace=wrap;html=1;fontSize=16;fillColor=#dae8fc;strokeColor=#6c8ebf;" vertex="1" parent="1">
          <mxGeometry x="190" y="690" width="40" height="40" as="geometry" />
        </mxCell>
        <mxCell id="9qAJUaaw6qXColUqVFIn-461" value="1" style="rounded=0;whiteSpace=wrap;html=1;fontSize=16;fillColor=#f5f5f5;strokeColor=#666666;fontColor=#333333;" vertex="1" parent="1">
          <mxGeometry x="190" y="730" width="40" height="40" as="geometry" />
        </mxCell>
        <mxCell id="9qAJUaaw6qXColUqVFIn-462" value="3" style="rounded=0;whiteSpace=wrap;html=1;fontSize=16;" vertex="1" parent="1">
          <mxGeometry x="270" y="450" width="40" height="40" as="geometry" />
        </mxCell>
        <mxCell id="9qAJUaaw6qXColUqVFIn-463" value="3" style="rounded=0;whiteSpace=wrap;html=1;fontSize=16;" vertex="1" parent="1">
          <mxGeometry x="270" y="490" width="40" height="40" as="geometry" />
        </mxCell>
        <mxCell id="9qAJUaaw6qXColUqVFIn-464" value="3" style="rounded=0;whiteSpace=wrap;html=1;fontSize=16;" vertex="1" parent="1">
          <mxGeometry x="270" y="530" width="40" height="40" as="geometry" />
        </mxCell>
        <mxCell id="9qAJUaaw6qXColUqVFIn-465" value="3" style="rounded=0;whiteSpace=wrap;html=1;fontSize=16;" vertex="1" parent="1">
          <mxGeometry x="270" y="570" width="40" height="40" as="geometry" />
        </mxCell>
        <mxCell id="9qAJUaaw6qXColUqVFIn-466" value="3" style="rounded=0;whiteSpace=wrap;html=1;fontSize=16;" vertex="1" parent="1">
          <mxGeometry x="270" y="610" width="40" height="40" as="geometry" />
        </mxCell>
        <mxCell id="9qAJUaaw6qXColUqVFIn-467" value="3" style="rounded=0;whiteSpace=wrap;html=1;fontSize=16;" vertex="1" parent="1">
          <mxGeometry x="270" y="650" width="40" height="40" as="geometry" />
        </mxCell>
        <mxCell id="9qAJUaaw6qXColUqVFIn-468" value="3" style="rounded=0;whiteSpace=wrap;html=1;fontSize=16;" vertex="1" parent="1">
          <mxGeometry x="270" y="690" width="40" height="40" as="geometry" />
        </mxCell>
        <mxCell id="9qAJUaaw6qXColUqVFIn-469" value="3" style="rounded=0;whiteSpace=wrap;html=1;fontSize=16;" vertex="1" parent="1">
          <mxGeometry x="270" y="730" width="40" height="40" as="geometry" />
        </mxCell>
        <mxCell id="9qAJUaaw6qXColUqVFIn-470" value="" style="edgeStyle=orthogonalEdgeStyle;rounded=0;orthogonalLoop=1;jettySize=auto;html=1;" edge="1" source="9qAJUaaw6qXColUqVFIn-471" target="9qAJUaaw6qXColUqVFIn-474" parent="1">
          <mxGeometry relative="1" as="geometry" />
        </mxCell>
        <mxCell id="9qAJUaaw6qXColUqVFIn-471" value="24" style="rounded=0;whiteSpace=wrap;html=1;fontSize=16;" vertex="1" parent="1">
          <mxGeometry x="350" y="570" width="40" height="40" as="geometry" />
        </mxCell>
        <mxCell id="9qAJUaaw6qXColUqVFIn-472" value="" style="edgeStyle=orthogonalEdgeStyle;rounded=0;orthogonalLoop=1;jettySize=auto;html=1;" edge="1" source="9qAJUaaw6qXColUqVFIn-473" target="9qAJUaaw6qXColUqVFIn-474" parent="1">
          <mxGeometry relative="1" as="geometry" />
        </mxCell>
        <mxCell id="9qAJUaaw6qXColUqVFIn-473" value="8" style="rounded=0;whiteSpace=wrap;html=1;fontSize=16;" vertex="1" parent="1">
          <mxGeometry x="350" y="610" width="40" height="40" as="geometry" />
        </mxCell>
        <mxCell id="9qAJUaaw6qXColUqVFIn-474" value="3" style="rounded=0;whiteSpace=wrap;html=1;fontSize=16;" vertex="1" parent="1">
          <mxGeometry x="450" y="590" width="40" height="40" as="geometry" />
        </mxCell>
        <mxCell id="9qAJUaaw6qXColUqVFIn-475" value="Lavg" style="rounded=0;whiteSpace=wrap;html=1;fontSize=16;fillColor=#fad9d5;strokeColor=#ae4132;fontStyle=1" vertex="1" parent="1">
          <mxGeometry x="390" y="500" width="100" height="40" as="geometry" />
        </mxCell>
        <mxCell id="9qAJUaaw6qXColUqVFIn-476" value="010" style="rounded=0;whiteSpace=wrap;html=1;fontSize=16;fillColor=#f5f5f5;strokeColor=#666666;fontColor=#333333;" vertex="1" parent="1">
          <mxGeometry x="430" y="650" width="40" height="40" as="geometry" />
        </mxCell>
        <mxCell id="9qAJUaaw6qXColUqVFIn-477" value="011" style="rounded=0;whiteSpace=wrap;html=1;fontSize=16;fillColor=#d5e8d4;strokeColor=#82b366;" vertex="1" parent="1">
          <mxGeometry x="470" y="650" width="40" height="40" as="geometry" />
        </mxCell>
        <mxCell id="9qAJUaaw6qXColUqVFIn-478" value="000" style="rounded=0;whiteSpace=wrap;html=1;fontSize=16;" vertex="1" parent="1">
          <mxGeometry x="510" y="650" width="40" height="40" as="geometry" />
        </mxCell>
        <mxCell id="9qAJUaaw6qXColUqVFIn-479" value="001" style="rounded=0;whiteSpace=wrap;html=1;fontSize=16;fillColor=#ffe6cc;strokeColor=#d79b00;" vertex="1" parent="1">
          <mxGeometry x="550" y="650" width="40" height="40" as="geometry" />
        </mxCell>
        <mxCell id="9qAJUaaw6qXColUqVFIn-480" value="110" style="rounded=0;whiteSpace=wrap;html=1;fontSize=16;fillColor=#e1d5e7;strokeColor=#9673a6;" vertex="1" parent="1">
          <mxGeometry x="590" y="650" width="40" height="40" as="geometry" />
        </mxCell>
        <mxCell id="9qAJUaaw6qXColUqVFIn-481" value="111" style="rounded=0;whiteSpace=wrap;html=1;fontSize=16;fillColor=#f8cecc;strokeColor=#b85450;" vertex="1" parent="1">
          <mxGeometry x="630" y="650" width="40" height="40" as="geometry" />
        </mxCell>
        <mxCell id="9qAJUaaw6qXColUqVFIn-482" value="100" style="rounded=0;whiteSpace=wrap;html=1;fontSize=16;fillColor=#dae8fc;strokeColor=#6c8ebf;" vertex="1" parent="1">
          <mxGeometry x="670" y="650" width="40" height="40" as="geometry" />
        </mxCell>
        <mxCell id="9qAJUaaw6qXColUqVFIn-483" value="101" style="rounded=0;whiteSpace=wrap;html=1;fontSize=16;fillColor=#f5f5f5;strokeColor=#666666;fontColor=#333333;" vertex="1" parent="1">
          <mxGeometry x="710" y="650" width="40" height="40" as="geometry" />
        </mxCell>
        <mxCell id="9qAJUaaw6qXColUqVFIn-484" value="A" style="rounded=0;whiteSpace=wrap;html=1;fontSize=16;" vertex="1" parent="1">
          <mxGeometry x="70" y="450" width="40" height="40" as="geometry" />
        </mxCell>
        <mxCell id="9qAJUaaw6qXColUqVFIn-485" value="E" style="rounded=0;whiteSpace=wrap;html=1;fontSize=16;" vertex="1" parent="1">
          <mxGeometry x="70" y="490" width="40" height="40" as="geometry" />
        </mxCell>
        <mxCell id="9qAJUaaw6qXColUqVFIn-486" value="M" style="rounded=0;whiteSpace=wrap;html=1;fontSize=16;" vertex="1" parent="1">
          <mxGeometry x="70" y="530" width="40" height="40" as="geometry" />
        </mxCell>
        <mxCell id="9qAJUaaw6qXColUqVFIn-487" value="N" style="rounded=0;whiteSpace=wrap;html=1;fontSize=16;" vertex="1" parent="1">
          <mxGeometry x="70" y="570" width="40" height="40" as="geometry" />
        </mxCell>
        <mxCell id="9qAJUaaw6qXColUqVFIn-488" value="O" style="rounded=0;whiteSpace=wrap;html=1;fontSize=16;" vertex="1" parent="1">
          <mxGeometry x="70" y="610" width="40" height="40" as="geometry" />
        </mxCell>
        <mxCell id="9qAJUaaw6qXColUqVFIn-489" value="S" style="rounded=0;whiteSpace=wrap;html=1;fontSize=16;" vertex="1" parent="1">
          <mxGeometry x="70" y="650" width="40" height="40" as="geometry" />
        </mxCell>
        <mxCell id="9qAJUaaw6qXColUqVFIn-490" value="T" style="rounded=0;whiteSpace=wrap;html=1;fontSize=16;" vertex="1" parent="1">
          <mxGeometry x="70" y="690" width="40" height="40" as="geometry" />
        </mxCell>
        <mxCell id="9qAJUaaw6qXColUqVFIn-491" value="W" style="rounded=0;whiteSpace=wrap;html=1;fontSize=16;" vertex="1" parent="1">
          <mxGeometry x="70" y="730" width="40" height="40" as="geometry" />
        </mxCell>
      </root>
    </mxGraphModel>
  </diagram>
  <diagram id="PCd7bnTs3wKMZ3GXQGIA" name="Ibu">
    <mxGraphModel dx="1552" dy="725" grid="1" gridSize="10" guides="1" tooltips="1" connect="1" arrows="1" fold="1" page="1" pageScale="1" pageWidth="1920" pageHeight="1200" math="0" shadow="0">
      <root>
        <mxCell id="dQCcz50sJK8iQ1qyOnzz-0" />
        <mxCell id="dQCcz50sJK8iQ1qyOnzz-1" parent="dQCcz50sJK8iQ1qyOnzz-0" />
        <mxCell id="dQCcz50sJK8iQ1qyOnzz-2" value="Nama Ibu depan : &lt;b&gt;Sri&lt;/b&gt;&amp;nbsp;" style="text;html=1;align=center;verticalAlign=middle;resizable=0;points=[];autosize=1;fontSize=16;fontStyle=0" parent="dQCcz50sJK8iQ1qyOnzz-1" vertex="1">
          <mxGeometry x="40" y="40" width="170" height="20" as="geometry" />
        </mxCell>
        <mxCell id="dQCcz50sJK8iQ1qyOnzz-4" value="I" style="rounded=0;whiteSpace=wrap;html=1;fontSize=16;" parent="dQCcz50sJK8iQ1qyOnzz-1" vertex="1">
          <mxGeometry x="40" y="80" width="40" height="40" as="geometry" />
        </mxCell>
        <mxCell id="dQCcz50sJK8iQ1qyOnzz-5" value="R" style="rounded=0;whiteSpace=wrap;html=1;fontSize=16;" parent="dQCcz50sJK8iQ1qyOnzz-1" vertex="1">
          <mxGeometry x="40" y="120" width="40" height="40" as="geometry" />
        </mxCell>
        <mxCell id="dQCcz50sJK8iQ1qyOnzz-6" value="S" style="rounded=0;whiteSpace=wrap;html=1;fontSize=16;" parent="dQCcz50sJK8iQ1qyOnzz-1" vertex="1">
          <mxGeometry x="40" y="160" width="40" height="40" as="geometry" />
        </mxCell>
        <mxCell id="8iG1tYaq5FPc3j-GKkLT-9" value="" style="edgeStyle=orthogonalEdgeStyle;rounded=0;orthogonalLoop=1;jettySize=auto;html=1;fontSize=16;" parent="dQCcz50sJK8iQ1qyOnzz-1" source="8iG1tYaq5FPc3j-GKkLT-0" target="8iG1tYaq5FPc3j-GKkLT-6" edge="1">
          <mxGeometry relative="1" as="geometry" />
        </mxCell>
        <mxCell id="8iG1tYaq5FPc3j-GKkLT-0" value="1" style="rounded=0;whiteSpace=wrap;html=1;fontSize=16;fillColor=#ffe6cc;strokeColor=#d79b00;" parent="dQCcz50sJK8iQ1qyOnzz-1" vertex="1">
          <mxGeometry x="80" y="80" width="40" height="40" as="geometry" />
        </mxCell>
        <mxCell id="8iG1tYaq5FPc3j-GKkLT-4" value="" style="edgeStyle=orthogonalEdgeStyle;rounded=0;orthogonalLoop=1;jettySize=auto;html=1;fontSize=16;" parent="dQCcz50sJK8iQ1qyOnzz-1" source="8iG1tYaq5FPc3j-GKkLT-1" target="8iG1tYaq5FPc3j-GKkLT-3" edge="1">
          <mxGeometry relative="1" as="geometry" />
        </mxCell>
        <mxCell id="8iG1tYaq5FPc3j-GKkLT-1" value="1" style="rounded=0;whiteSpace=wrap;html=1;fontSize=16;fillColor=#f5f5f5;strokeColor=#666666;fontColor=#333333;" parent="dQCcz50sJK8iQ1qyOnzz-1" vertex="1">
          <mxGeometry x="80" y="120" width="40" height="40" as="geometry" />
        </mxCell>
        <mxCell id="8iG1tYaq5FPc3j-GKkLT-5" value="" style="edgeStyle=orthogonalEdgeStyle;rounded=0;orthogonalLoop=1;jettySize=auto;html=1;fontSize=16;" parent="dQCcz50sJK8iQ1qyOnzz-1" source="8iG1tYaq5FPc3j-GKkLT-2" target="8iG1tYaq5FPc3j-GKkLT-3" edge="1">
          <mxGeometry relative="1" as="geometry" />
        </mxCell>
        <mxCell id="8iG1tYaq5FPc3j-GKkLT-2" value="1" style="rounded=0;whiteSpace=wrap;html=1;fontSize=16;fillColor=#e1d5e7;strokeColor=#9673a6;" parent="dQCcz50sJK8iQ1qyOnzz-1" vertex="1">
          <mxGeometry x="80" y="160" width="40" height="40" as="geometry" />
        </mxCell>
        <mxCell id="8iG1tYaq5FPc3j-GKkLT-11" value="" style="edgeStyle=none;rounded=0;orthogonalLoop=1;jettySize=auto;html=1;fontSize=16;entryX=0;entryY=0.5;entryDx=0;entryDy=0;exitX=1;exitY=0.5;exitDx=0;exitDy=0;" parent="dQCcz50sJK8iQ1qyOnzz-1" source="8iG1tYaq5FPc3j-GKkLT-3" target="8iG1tYaq5FPc3j-GKkLT-7" edge="1">
          <mxGeometry relative="1" as="geometry" />
        </mxCell>
        <mxCell id="8iG1tYaq5FPc3j-GKkLT-3" value="2" style="rounded=0;whiteSpace=wrap;html=1;fontSize=16;" parent="dQCcz50sJK8iQ1qyOnzz-1" vertex="1">
          <mxGeometry x="200" y="140" width="40" height="40" as="geometry" />
        </mxCell>
        <mxCell id="8iG1tYaq5FPc3j-GKkLT-10" value="" style="rounded=0;orthogonalLoop=1;jettySize=auto;html=1;fontSize=16;entryX=0;entryY=0.5;entryDx=0;entryDy=0;exitX=1;exitY=0.75;exitDx=0;exitDy=0;" parent="dQCcz50sJK8iQ1qyOnzz-1" source="8iG1tYaq5FPc3j-GKkLT-6" target="8iG1tYaq5FPc3j-GKkLT-8" edge="1">
          <mxGeometry relative="1" as="geometry" />
        </mxCell>
        <mxCell id="8iG1tYaq5FPc3j-GKkLT-6" value="1" style="rounded=0;whiteSpace=wrap;html=1;fontSize=16;" parent="dQCcz50sJK8iQ1qyOnzz-1" vertex="1">
          <mxGeometry x="200" y="80" width="40" height="40" as="geometry" />
        </mxCell>
        <mxCell id="pc5faE2HfelPscwbZjI3-1" value="" style="edgeStyle=orthogonalEdgeStyle;rounded=0;orthogonalLoop=1;jettySize=auto;html=1;fontSize=16;" parent="dQCcz50sJK8iQ1qyOnzz-1" source="8iG1tYaq5FPc3j-GKkLT-7" target="pc5faE2HfelPscwbZjI3-0" edge="1">
          <mxGeometry relative="1" as="geometry" />
        </mxCell>
        <mxCell id="8iG1tYaq5FPc3j-GKkLT-7" value="2" style="rounded=0;whiteSpace=wrap;html=1;fontSize=16;" parent="dQCcz50sJK8iQ1qyOnzz-1" vertex="1">
          <mxGeometry x="280" y="80" width="40" height="40" as="geometry" />
        </mxCell>
        <mxCell id="pc5faE2HfelPscwbZjI3-2" value="" style="edgeStyle=orthogonalEdgeStyle;rounded=0;orthogonalLoop=1;jettySize=auto;html=1;fontSize=16;" parent="dQCcz50sJK8iQ1qyOnzz-1" source="8iG1tYaq5FPc3j-GKkLT-8" target="pc5faE2HfelPscwbZjI3-0" edge="1">
          <mxGeometry relative="1" as="geometry" />
        </mxCell>
        <mxCell id="8iG1tYaq5FPc3j-GKkLT-8" value="1" style="rounded=0;whiteSpace=wrap;html=1;fontSize=16;" parent="dQCcz50sJK8iQ1qyOnzz-1" vertex="1">
          <mxGeometry x="280" y="140" width="40" height="40" as="geometry" />
        </mxCell>
        <mxCell id="pc5faE2HfelPscwbZjI3-0" value="3" style="rounded=0;whiteSpace=wrap;html=1;fontSize=16;" parent="dQCcz50sJK8iQ1qyOnzz-1" vertex="1">
          <mxGeometry x="360" y="110" width="40" height="40" as="geometry" />
        </mxCell>
        <mxCell id="krKaO203iI4jszNb9xgq-0" value="I" style="rounded=0;whiteSpace=wrap;html=1;fontSize=16;" parent="dQCcz50sJK8iQ1qyOnzz-1" vertex="1">
          <mxGeometry x="40" y="240" width="40" height="40" as="geometry" />
        </mxCell>
        <mxCell id="krKaO203iI4jszNb9xgq-1" value="R" style="rounded=0;whiteSpace=wrap;html=1;fontSize=16;" parent="dQCcz50sJK8iQ1qyOnzz-1" vertex="1">
          <mxGeometry x="40" y="280" width="40" height="40" as="geometry" />
        </mxCell>
        <mxCell id="krKaO203iI4jszNb9xgq-2" value="S" style="rounded=0;whiteSpace=wrap;html=1;fontSize=16;" parent="dQCcz50sJK8iQ1qyOnzz-1" vertex="1">
          <mxGeometry x="40" y="320" width="40" height="40" as="geometry" />
        </mxCell>
        <mxCell id="krKaO203iI4jszNb9xgq-3" value="1" style="rounded=0;whiteSpace=wrap;html=1;fontSize=16;fillColor=#ffe6cc;strokeColor=#d79b00;" parent="dQCcz50sJK8iQ1qyOnzz-1" vertex="1">
          <mxGeometry x="80" y="240" width="40" height="40" as="geometry" />
        </mxCell>
        <mxCell id="krKaO203iI4jszNb9xgq-4" value="00" style="rounded=0;whiteSpace=wrap;html=1;fontSize=16;fillColor=#f5f5f5;strokeColor=#666666;fontColor=#333333;" parent="dQCcz50sJK8iQ1qyOnzz-1" vertex="1">
          <mxGeometry x="80" y="280" width="40" height="40" as="geometry" />
        </mxCell>
        <mxCell id="krKaO203iI4jszNb9xgq-5" value="01" style="rounded=0;whiteSpace=wrap;html=1;fontSize=16;fillColor=#e1d5e7;strokeColor=#9673a6;" parent="dQCcz50sJK8iQ1qyOnzz-1" vertex="1">
          <mxGeometry x="80" y="320" width="40" height="40" as="geometry" />
        </mxCell>
        <mxCell id="krKaO203iI4jszNb9xgq-6" value="1" style="text;html=1;align=center;verticalAlign=middle;resizable=0;points=[];autosize=1;fontSize=16;" parent="dQCcz50sJK8iQ1qyOnzz-1" vertex="1">
          <mxGeometry x="130" y="190" width="20" height="20" as="geometry" />
        </mxCell>
        <mxCell id="krKaO203iI4jszNb9xgq-7" value="1" style="text;html=1;align=center;verticalAlign=middle;resizable=0;points=[];autosize=1;fontSize=16;" parent="dQCcz50sJK8iQ1qyOnzz-1" vertex="1">
          <mxGeometry x="320" y="170" width="20" height="20" as="geometry" />
        </mxCell>
        <mxCell id="krKaO203iI4jszNb9xgq-8" value="0" style="text;html=1;align=center;verticalAlign=middle;resizable=0;points=[];autosize=1;fontSize=16;" parent="dQCcz50sJK8iQ1qyOnzz-1" vertex="1">
          <mxGeometry x="320" y="80" width="20" height="20" as="geometry" />
        </mxCell>
        <mxCell id="krKaO203iI4jszNb9xgq-9" value="0" style="text;html=1;align=center;verticalAlign=middle;resizable=0;points=[];autosize=1;fontSize=16;" parent="dQCcz50sJK8iQ1qyOnzz-1" vertex="1">
          <mxGeometry x="130" y="120" width="20" height="20" as="geometry" />
        </mxCell>
        <mxCell id="ul4y5McePSNsu8ndjQO--0" value="1" style="rounded=0;whiteSpace=wrap;html=1;fontSize=16;" parent="dQCcz50sJK8iQ1qyOnzz-1" vertex="1">
          <mxGeometry x="120" y="240" width="40" height="40" as="geometry" />
        </mxCell>
        <mxCell id="ul4y5McePSNsu8ndjQO--1" value="2" style="rounded=0;whiteSpace=wrap;html=1;fontSize=16;" parent="dQCcz50sJK8iQ1qyOnzz-1" vertex="1">
          <mxGeometry x="120" y="280" width="40" height="40" as="geometry" />
        </mxCell>
        <mxCell id="ul4y5McePSNsu8ndjQO--2" value="2" style="rounded=0;whiteSpace=wrap;html=1;fontSize=16;" parent="dQCcz50sJK8iQ1qyOnzz-1" vertex="1">
          <mxGeometry x="120" y="320" width="40" height="40" as="geometry" />
        </mxCell>
        <mxCell id="dtvDu_e-Qc7vCpPz8To1-0" value="1" style="rounded=0;whiteSpace=wrap;html=1;fontSize=16;fillColor=#ffe6cc;strokeColor=#d79b00;" parent="dQCcz50sJK8iQ1qyOnzz-1" vertex="1">
          <mxGeometry x="160" y="240" width="40" height="40" as="geometry" />
        </mxCell>
        <mxCell id="dtvDu_e-Qc7vCpPz8To1-1" value="1" style="rounded=0;whiteSpace=wrap;html=1;fontSize=16;fillColor=#f5f5f5;strokeColor=#666666;fontColor=#333333;" parent="dQCcz50sJK8iQ1qyOnzz-1" vertex="1">
          <mxGeometry x="160" y="280" width="40" height="40" as="geometry" />
        </mxCell>
        <mxCell id="dtvDu_e-Qc7vCpPz8To1-2" value="1" style="rounded=0;whiteSpace=wrap;html=1;fontSize=16;fillColor=#e1d5e7;strokeColor=#9673a6;" parent="dQCcz50sJK8iQ1qyOnzz-1" vertex="1">
          <mxGeometry x="160" y="320" width="40" height="40" as="geometry" />
        </mxCell>
        <mxCell id="4KKXoafoid8FBcbn3GD_-0" value="1" style="rounded=0;whiteSpace=wrap;html=1;fontSize=16;" parent="dQCcz50sJK8iQ1qyOnzz-1" vertex="1">
          <mxGeometry x="240" y="240" width="40" height="40" as="geometry" />
        </mxCell>
        <mxCell id="4KKXoafoid8FBcbn3GD_-1" value="2" style="rounded=0;whiteSpace=wrap;html=1;fontSize=16;" parent="dQCcz50sJK8iQ1qyOnzz-1" vertex="1">
          <mxGeometry x="240" y="280" width="40" height="40" as="geometry" />
        </mxCell>
        <mxCell id="4KKXoafoid8FBcbn3GD_-2" value="2" style="rounded=0;whiteSpace=wrap;html=1;fontSize=16;" parent="dQCcz50sJK8iQ1qyOnzz-1" vertex="1">
          <mxGeometry x="240" y="320" width="40" height="40" as="geometry" />
        </mxCell>
        <mxCell id="PeilpjVoBktiTG76jTi1-0" value="" style="edgeStyle=orthogonalEdgeStyle;rounded=0;orthogonalLoop=1;jettySize=auto;html=1;" parent="dQCcz50sJK8iQ1qyOnzz-1" source="PeilpjVoBktiTG76jTi1-1" target="PeilpjVoBktiTG76jTi1-4" edge="1">
          <mxGeometry relative="1" as="geometry" />
        </mxCell>
        <mxCell id="PeilpjVoBktiTG76jTi1-1" value="5" style="rounded=0;whiteSpace=wrap;html=1;fontSize=16;" parent="dQCcz50sJK8iQ1qyOnzz-1" vertex="1">
          <mxGeometry x="380" y="280" width="40" height="40" as="geometry" />
        </mxCell>
        <mxCell id="PeilpjVoBktiTG76jTi1-2" value="" style="edgeStyle=orthogonalEdgeStyle;rounded=0;orthogonalLoop=1;jettySize=auto;html=1;" parent="dQCcz50sJK8iQ1qyOnzz-1" source="PeilpjVoBktiTG76jTi1-3" target="PeilpjVoBktiTG76jTi1-4" edge="1">
          <mxGeometry relative="1" as="geometry" />
        </mxCell>
        <mxCell id="PeilpjVoBktiTG76jTi1-3" value="3" style="rounded=0;whiteSpace=wrap;html=1;fontSize=16;" parent="dQCcz50sJK8iQ1qyOnzz-1" vertex="1">
          <mxGeometry x="380" y="320" width="40" height="40" as="geometry" />
        </mxCell>
        <mxCell id="PeilpjVoBktiTG76jTi1-4" value="1.6" style="rounded=0;whiteSpace=wrap;html=1;fontSize=16;" parent="dQCcz50sJK8iQ1qyOnzz-1" vertex="1">
          <mxGeometry x="480" y="300" width="40" height="40" as="geometry" />
        </mxCell>
        <mxCell id="kSRp7jX99460eSyV6_Yu-0" value="Lavg" style="rounded=0;whiteSpace=wrap;html=1;fontSize=16;fillColor=#fad9d5;strokeColor=#ae4132;fontStyle=1" parent="dQCcz50sJK8iQ1qyOnzz-1" vertex="1">
          <mxGeometry x="390" y="220" width="100" height="40" as="geometry" />
        </mxCell>
        <mxCell id="UWBa_zUoZqO4CrLL3pT2-0" value="1" style="rounded=0;whiteSpace=wrap;html=1;fontSize=16;fillColor=#ffe6cc;strokeColor=#d79b00;" parent="dQCcz50sJK8iQ1qyOnzz-1" vertex="1">
          <mxGeometry x="430" y="370" width="40" height="40" as="geometry" />
        </mxCell>
        <mxCell id="UWBa_zUoZqO4CrLL3pT2-1" value="00" style="rounded=0;whiteSpace=wrap;html=1;fontSize=16;fillColor=#f5f5f5;strokeColor=#666666;fontColor=#333333;" parent="dQCcz50sJK8iQ1qyOnzz-1" vertex="1">
          <mxGeometry x="470" y="370" width="40" height="40" as="geometry" />
        </mxCell>
        <mxCell id="UWBa_zUoZqO4CrLL3pT2-2" value="01" style="rounded=0;whiteSpace=wrap;html=1;fontSize=16;fillColor=#e1d5e7;strokeColor=#9673a6;" parent="dQCcz50sJK8iQ1qyOnzz-1" vertex="1">
          <mxGeometry x="510" y="370" width="40" height="40" as="geometry" />
        </mxCell>
        <mxCell id="UWBa_zUoZqO4CrLL3pT2-4" value="Nama Ibu belakang : &lt;b&gt;Handayani&lt;/b&gt;&amp;nbsp;" style="text;html=1;align=center;verticalAlign=middle;resizable=0;points=[];autosize=1;fontSize=16;fontStyle=0" parent="dQCcz50sJK8iQ1qyOnzz-1" vertex="1">
          <mxGeometry x="40" y="440" width="250" height="20" as="geometry" />
        </mxCell>
        <mxCell id="UWBa_zUoZqO4CrLL3pT2-5" value="A" style="rounded=0;whiteSpace=wrap;html=1;fontSize=16;" parent="dQCcz50sJK8iQ1qyOnzz-1" vertex="1">
          <mxGeometry x="40" y="480" width="40" height="40" as="geometry" />
        </mxCell>
        <mxCell id="UWBa_zUoZqO4CrLL3pT2-6" value="D" style="rounded=0;whiteSpace=wrap;html=1;fontSize=16;" parent="dQCcz50sJK8iQ1qyOnzz-1" vertex="1">
          <mxGeometry x="40" y="520" width="40" height="40" as="geometry" />
        </mxCell>
        <mxCell id="UWBa_zUoZqO4CrLL3pT2-7" value="H" style="rounded=0;whiteSpace=wrap;html=1;fontSize=16;" parent="dQCcz50sJK8iQ1qyOnzz-1" vertex="1">
          <mxGeometry x="40" y="560" width="40" height="40" as="geometry" />
        </mxCell>
        <mxCell id="UWBa_zUoZqO4CrLL3pT2-8" value="I" style="rounded=0;whiteSpace=wrap;html=1;fontSize=16;" parent="dQCcz50sJK8iQ1qyOnzz-1" vertex="1">
          <mxGeometry x="40" y="600" width="40" height="40" as="geometry" />
        </mxCell>
        <mxCell id="UWBa_zUoZqO4CrLL3pT2-9" value="N" style="rounded=0;whiteSpace=wrap;html=1;fontSize=16;" parent="dQCcz50sJK8iQ1qyOnzz-1" vertex="1">
          <mxGeometry x="40" y="640" width="40" height="40" as="geometry" />
        </mxCell>
        <mxCell id="UWBa_zUoZqO4CrLL3pT2-10" value="Y" style="rounded=0;whiteSpace=wrap;html=1;fontSize=16;" parent="dQCcz50sJK8iQ1qyOnzz-1" vertex="1">
          <mxGeometry x="40" y="680" width="40" height="40" as="geometry" />
        </mxCell>
        <mxCell id="UWBa_zUoZqO4CrLL3pT2-90" value="" style="edgeStyle=none;rounded=0;orthogonalLoop=1;jettySize=auto;html=1;fontSize=16;entryX=0;entryY=0.5;entryDx=0;entryDy=0;" parent="dQCcz50sJK8iQ1qyOnzz-1" source="UWBa_zUoZqO4CrLL3pT2-11" target="UWBa_zUoZqO4CrLL3pT2-17" edge="1">
          <mxGeometry relative="1" as="geometry" />
        </mxCell>
        <mxCell id="UWBa_zUoZqO4CrLL3pT2-11" value="3" style="rounded=0;whiteSpace=wrap;html=1;fontSize=16;fillColor=#ffe6cc;strokeColor=#d79b00;" parent="dQCcz50sJK8iQ1qyOnzz-1" vertex="1">
          <mxGeometry x="80" y="480" width="40" height="40" as="geometry" />
        </mxCell>
        <mxCell id="UWBa_zUoZqO4CrLL3pT2-92" value="" style="edgeStyle=none;rounded=0;orthogonalLoop=1;jettySize=auto;html=1;fontSize=16;entryX=0;entryY=0.5;entryDx=0;entryDy=0;" parent="dQCcz50sJK8iQ1qyOnzz-1" source="UWBa_zUoZqO4CrLL3pT2-12" target="UWBa_zUoZqO4CrLL3pT2-18" edge="1">
          <mxGeometry relative="1" as="geometry" />
        </mxCell>
        <mxCell id="UWBa_zUoZqO4CrLL3pT2-12" value="1" style="rounded=0;whiteSpace=wrap;html=1;fontSize=16;fillColor=#d5e8d4;strokeColor=#82b366;" parent="dQCcz50sJK8iQ1qyOnzz-1" vertex="1">
          <mxGeometry x="80" y="520" width="40" height="40" as="geometry" />
        </mxCell>
        <mxCell id="UWBa_zUoZqO4CrLL3pT2-93" value="" style="edgeStyle=none;rounded=0;orthogonalLoop=1;jettySize=auto;html=1;fontSize=16;entryX=0;entryY=0.5;entryDx=0;entryDy=0;" parent="dQCcz50sJK8iQ1qyOnzz-1" source="UWBa_zUoZqO4CrLL3pT2-13" target="UWBa_zUoZqO4CrLL3pT2-19" edge="1">
          <mxGeometry relative="1" as="geometry" />
        </mxCell>
        <mxCell id="UWBa_zUoZqO4CrLL3pT2-13" value="1" style="rounded=0;whiteSpace=wrap;html=1;fontSize=16;fillColor=#f8cecc;strokeColor=#b85450;" parent="dQCcz50sJK8iQ1qyOnzz-1" vertex="1">
          <mxGeometry x="80" y="560" width="40" height="40" as="geometry" />
        </mxCell>
        <mxCell id="UWBa_zUoZqO4CrLL3pT2-96" value="" style="edgeStyle=none;rounded=0;orthogonalLoop=1;jettySize=auto;html=1;fontSize=16;entryX=0;entryY=0.5;entryDx=0;entryDy=0;" parent="dQCcz50sJK8iQ1qyOnzz-1" source="UWBa_zUoZqO4CrLL3pT2-14" target="UWBa_zUoZqO4CrLL3pT2-21" edge="1">
          <mxGeometry relative="1" as="geometry" />
        </mxCell>
        <mxCell id="UWBa_zUoZqO4CrLL3pT2-14" value="1" style="rounded=0;whiteSpace=wrap;html=1;fontSize=16;fillColor=#dae8fc;strokeColor=#6c8ebf;" parent="dQCcz50sJK8iQ1qyOnzz-1" vertex="1">
          <mxGeometry x="80" y="600" width="40" height="40" as="geometry" />
        </mxCell>
        <mxCell id="UWBa_zUoZqO4CrLL3pT2-97" value="" style="edgeStyle=none;rounded=0;orthogonalLoop=1;jettySize=auto;html=1;fontSize=16;entryX=0;entryY=0.5;entryDx=0;entryDy=0;exitX=1;exitY=0.5;exitDx=0;exitDy=0;" parent="dQCcz50sJK8iQ1qyOnzz-1" source="UWBa_zUoZqO4CrLL3pT2-15" target="UWBa_zUoZqO4CrLL3pT2-20" edge="1">
          <mxGeometry relative="1" as="geometry" />
        </mxCell>
        <mxCell id="UWBa_zUoZqO4CrLL3pT2-15" value="2" style="rounded=0;whiteSpace=wrap;html=1;fontSize=16;fillColor=#fff2cc;strokeColor=#d6b656;" parent="dQCcz50sJK8iQ1qyOnzz-1" vertex="1">
          <mxGeometry x="80" y="640" width="40" height="40" as="geometry" />
        </mxCell>
        <mxCell id="UWBa_zUoZqO4CrLL3pT2-98" value="" style="edgeStyle=none;rounded=0;orthogonalLoop=1;jettySize=auto;html=1;fontSize=16;" parent="dQCcz50sJK8iQ1qyOnzz-1" source="UWBa_zUoZqO4CrLL3pT2-16" target="UWBa_zUoZqO4CrLL3pT2-22" edge="1">
          <mxGeometry relative="1" as="geometry" />
        </mxCell>
        <mxCell id="UWBa_zUoZqO4CrLL3pT2-16" value="1" style="rounded=0;whiteSpace=wrap;html=1;fontSize=16;fillColor=#f5f5f5;strokeColor=#666666;fontColor=#333333;" parent="dQCcz50sJK8iQ1qyOnzz-1" vertex="1">
          <mxGeometry x="80" y="680" width="40" height="40" as="geometry" />
        </mxCell>
        <mxCell id="UWBa_zUoZqO4CrLL3pT2-17" value="3" style="rounded=0;whiteSpace=wrap;html=1;fontSize=16;fillColor=#ffe6cc;strokeColor=#d79b00;" parent="dQCcz50sJK8iQ1qyOnzz-1" vertex="1">
          <mxGeometry x="800" y="480" width="40" height="40" as="geometry" />
        </mxCell>
        <mxCell id="UWBa_zUoZqO4CrLL3pT2-109" value="" style="edgeStyle=none;rounded=0;orthogonalLoop=1;jettySize=auto;html=1;fontSize=16;exitX=1;exitY=0.5;exitDx=0;exitDy=0;" parent="dQCcz50sJK8iQ1qyOnzz-1" source="UWBa_zUoZqO4CrLL3pT2-18" edge="1">
          <mxGeometry relative="1" as="geometry">
            <mxPoint x="320" y="580" as="targetPoint" />
          </mxGeometry>
        </mxCell>
        <mxCell id="UWBa_zUoZqO4CrLL3pT2-18" value="1" style="rounded=0;whiteSpace=wrap;html=1;fontSize=16;fillColor=#d5e8d4;strokeColor=#82b366;" parent="dQCcz50sJK8iQ1qyOnzz-1" vertex="1">
          <mxGeometry x="240" y="520" width="40" height="40" as="geometry" />
        </mxCell>
        <mxCell id="UWBa_zUoZqO4CrLL3pT2-94" value="" style="edgeStyle=none;rounded=0;orthogonalLoop=1;jettySize=auto;html=1;fontSize=16;entryX=0;entryY=0.5;entryDx=0;entryDy=0;" parent="dQCcz50sJK8iQ1qyOnzz-1" source="UWBa_zUoZqO4CrLL3pT2-19" target="UWBa_zUoZqO4CrLL3pT2-26" edge="1">
          <mxGeometry relative="1" as="geometry" />
        </mxCell>
        <mxCell id="UWBa_zUoZqO4CrLL3pT2-19" value="1" style="rounded=0;whiteSpace=wrap;html=1;fontSize=16;fillColor=#f8cecc;strokeColor=#b85450;" parent="dQCcz50sJK8iQ1qyOnzz-1" vertex="1">
          <mxGeometry x="160" y="560" width="40" height="40" as="geometry" />
        </mxCell>
        <mxCell id="UWBa_zUoZqO4CrLL3pT2-103" value="" style="edgeStyle=none;rounded=0;orthogonalLoop=1;jettySize=auto;html=1;fontSize=16;entryX=0;entryY=0.75;entryDx=0;entryDy=0;" parent="dQCcz50sJK8iQ1qyOnzz-1" source="UWBa_zUoZqO4CrLL3pT2-20" target="UWBa_zUoZqO4CrLL3pT2-25" edge="1">
          <mxGeometry relative="1" as="geometry" />
        </mxCell>
        <mxCell id="UWBa_zUoZqO4CrLL3pT2-20" value="2" style="rounded=0;whiteSpace=wrap;html=1;fontSize=16;fillColor=#fff2cc;strokeColor=#d6b656;" parent="dQCcz50sJK8iQ1qyOnzz-1" vertex="1">
          <mxGeometry x="160" y="600" width="40" height="40" as="geometry" />
        </mxCell>
        <mxCell id="UWBa_zUoZqO4CrLL3pT2-100" value="" style="edgeStyle=none;rounded=0;orthogonalLoop=1;jettySize=auto;html=1;fontSize=16;entryX=0;entryY=0.5;entryDx=0;entryDy=0;" parent="dQCcz50sJK8iQ1qyOnzz-1" source="UWBa_zUoZqO4CrLL3pT2-21" target="UWBa_zUoZqO4CrLL3pT2-33" edge="1">
          <mxGeometry relative="1" as="geometry">
            <mxPoint x="240" y="660" as="targetPoint" />
          </mxGeometry>
        </mxCell>
        <mxCell id="UWBa_zUoZqO4CrLL3pT2-21" value="1" style="rounded=0;whiteSpace=wrap;html=1;fontSize=16;fillColor=#dae8fc;strokeColor=#6c8ebf;" parent="dQCcz50sJK8iQ1qyOnzz-1" vertex="1">
          <mxGeometry x="160" y="640" width="40" height="40" as="geometry" />
        </mxCell>
        <mxCell id="UWBa_zUoZqO4CrLL3pT2-22" value="1" style="rounded=0;whiteSpace=wrap;html=1;fontSize=16;fillColor=#f5f5f5;strokeColor=#666666;fontColor=#333333;" parent="dQCcz50sJK8iQ1qyOnzz-1" vertex="1">
          <mxGeometry x="300" y="680" width="40" height="40" as="geometry" />
        </mxCell>
        <mxCell id="UWBa_zUoZqO4CrLL3pT2-104" style="edgeStyle=none;rounded=0;orthogonalLoop=1;jettySize=auto;html=1;entryX=0;entryY=0.5;entryDx=0;entryDy=0;fontSize=16;exitX=1;exitY=0.5;exitDx=0;exitDy=0;" parent="dQCcz50sJK8iQ1qyOnzz-1" source="UWBa_zUoZqO4CrLL3pT2-25" target="UWBa_zUoZqO4CrLL3pT2-30" edge="1">
          <mxGeometry relative="1" as="geometry" />
        </mxCell>
        <mxCell id="UWBa_zUoZqO4CrLL3pT2-25" value="2" style="rounded=0;whiteSpace=wrap;html=1;fontSize=16;fillColor=#fff2cc;strokeColor=#d6b656;" parent="dQCcz50sJK8iQ1qyOnzz-1" vertex="1">
          <mxGeometry x="240" y="560" width="40" height="40" as="geometry" />
        </mxCell>
        <mxCell id="UWBa_zUoZqO4CrLL3pT2-95" value="" style="edgeStyle=none;rounded=0;orthogonalLoop=1;jettySize=auto;html=1;fontSize=16;entryX=0;entryY=0.5;entryDx=0;entryDy=0;" parent="dQCcz50sJK8iQ1qyOnzz-1" source="UWBa_zUoZqO4CrLL3pT2-26" target="UWBa_zUoZqO4CrLL3pT2-32" edge="1">
          <mxGeometry relative="1" as="geometry" />
        </mxCell>
        <mxCell id="UWBa_zUoZqO4CrLL3pT2-26" value="1" style="rounded=0;whiteSpace=wrap;html=1;fontSize=16;fillColor=#f8cecc;strokeColor=#b85450;" parent="dQCcz50sJK8iQ1qyOnzz-1" vertex="1">
          <mxGeometry x="240" y="600" width="40" height="40" as="geometry" />
        </mxCell>
        <mxCell id="UWBa_zUoZqO4CrLL3pT2-105" value="" style="edgeStyle=none;rounded=0;orthogonalLoop=1;jettySize=auto;html=1;fontSize=16;entryX=0;entryY=0.5;entryDx=0;entryDy=0;" parent="dQCcz50sJK8iQ1qyOnzz-1" source="UWBa_zUoZqO4CrLL3pT2-30" target="UWBa_zUoZqO4CrLL3pT2-39" edge="1">
          <mxGeometry relative="1" as="geometry" />
        </mxCell>
        <mxCell id="UWBa_zUoZqO4CrLL3pT2-30" value="2" style="rounded=0;whiteSpace=wrap;html=1;fontSize=16;fillColor=#fff2cc;strokeColor=#d6b656;" parent="dQCcz50sJK8iQ1qyOnzz-1" vertex="1">
          <mxGeometry x="320" y="520" width="40" height="40" as="geometry" />
        </mxCell>
        <mxCell id="UWBa_zUoZqO4CrLL3pT2-110" value="" style="edgeStyle=none;rounded=0;orthogonalLoop=1;jettySize=auto;html=1;fontSize=16;" parent="dQCcz50sJK8iQ1qyOnzz-1" source="UWBa_zUoZqO4CrLL3pT2-31" target="UWBa_zUoZqO4CrLL3pT2-40" edge="1">
          <mxGeometry relative="1" as="geometry" />
        </mxCell>
        <mxCell id="UWBa_zUoZqO4CrLL3pT2-31" value="1" style="rounded=0;whiteSpace=wrap;html=1;fontSize=16;fillColor=#d5e8d4;strokeColor=#82b366;" parent="dQCcz50sJK8iQ1qyOnzz-1" vertex="1">
          <mxGeometry x="320" y="560" width="40" height="40" as="geometry" />
        </mxCell>
        <mxCell id="UWBa_zUoZqO4CrLL3pT2-113" value="" style="edgeStyle=none;rounded=0;orthogonalLoop=1;jettySize=auto;html=1;fontSize=16;exitX=1;exitY=0.5;exitDx=0;exitDy=0;entryX=0;entryY=0.5;entryDx=0;entryDy=0;" parent="dQCcz50sJK8iQ1qyOnzz-1" source="UWBa_zUoZqO4CrLL3pT2-32" target="UWBa_zUoZqO4CrLL3pT2-46" edge="1">
          <mxGeometry relative="1" as="geometry" />
        </mxCell>
        <mxCell id="UWBa_zUoZqO4CrLL3pT2-32" value="1" style="rounded=0;whiteSpace=wrap;html=1;fontSize=16;fillColor=#f8cecc;strokeColor=#b85450;" parent="dQCcz50sJK8iQ1qyOnzz-1" vertex="1">
          <mxGeometry x="400" y="600" width="40" height="40" as="geometry" />
        </mxCell>
        <mxCell id="UWBa_zUoZqO4CrLL3pT2-36" value="" style="edgeStyle=orthogonalEdgeStyle;rounded=0;orthogonalLoop=1;jettySize=auto;html=1;fontSize=16;" parent="dQCcz50sJK8iQ1qyOnzz-1" source="UWBa_zUoZqO4CrLL3pT2-33" target="UWBa_zUoZqO4CrLL3pT2-35" edge="1">
          <mxGeometry relative="1" as="geometry" />
        </mxCell>
        <mxCell id="UWBa_zUoZqO4CrLL3pT2-33" value="1" style="rounded=0;whiteSpace=wrap;html=1;fontSize=16;fillColor=#dae8fc;strokeColor=#6c8ebf;" parent="dQCcz50sJK8iQ1qyOnzz-1" vertex="1">
          <mxGeometry x="300" y="640" width="40" height="40" as="geometry" />
        </mxCell>
        <mxCell id="UWBa_zUoZqO4CrLL3pT2-37" value="" style="edgeStyle=orthogonalEdgeStyle;rounded=0;orthogonalLoop=1;jettySize=auto;html=1;fontSize=16;" parent="dQCcz50sJK8iQ1qyOnzz-1" target="UWBa_zUoZqO4CrLL3pT2-35" edge="1">
          <mxGeometry relative="1" as="geometry">
            <mxPoint x="340" y="700" as="sourcePoint" />
          </mxGeometry>
        </mxCell>
        <mxCell id="UWBa_zUoZqO4CrLL3pT2-116" value="" style="edgeStyle=none;rounded=0;orthogonalLoop=1;jettySize=auto;html=1;fontSize=16;entryX=0;entryY=0.5;entryDx=0;entryDy=0;exitX=1;exitY=0.5;exitDx=0;exitDy=0;" parent="dQCcz50sJK8iQ1qyOnzz-1" source="UWBa_zUoZqO4CrLL3pT2-35" target="UWBa_zUoZqO4CrLL3pT2-45" edge="1">
          <mxGeometry relative="1" as="geometry">
            <mxPoint x="450" y="680" as="sourcePoint" />
          </mxGeometry>
        </mxCell>
        <mxCell id="UWBa_zUoZqO4CrLL3pT2-35" value="2" style="rounded=0;whiteSpace=wrap;html=1;fontSize=16;fillColor=#dae8fc;strokeColor=#6c8ebf;" parent="dQCcz50sJK8iQ1qyOnzz-1" vertex="1">
          <mxGeometry x="400" y="660" width="40" height="40" as="geometry" />
        </mxCell>
        <mxCell id="UWBa_zUoZqO4CrLL3pT2-108" value="" style="edgeStyle=none;rounded=0;orthogonalLoop=1;jettySize=auto;html=1;fontSize=16;entryX=0;entryY=0.5;entryDx=0;entryDy=0;exitX=1;exitY=0.5;exitDx=0;exitDy=0;" parent="dQCcz50sJK8iQ1qyOnzz-1" source="UWBa_zUoZqO4CrLL3pT2-39" target="UWBa_zUoZqO4CrLL3pT2-67" edge="1">
          <mxGeometry relative="1" as="geometry" />
        </mxCell>
        <mxCell id="UWBa_zUoZqO4CrLL3pT2-39" value="2" style="rounded=0;whiteSpace=wrap;html=1;fontSize=16;fillColor=#fff2cc;strokeColor=#d6b656;" parent="dQCcz50sJK8iQ1qyOnzz-1" vertex="1">
          <mxGeometry x="720" y="520" width="40" height="40" as="geometry" />
        </mxCell>
        <mxCell id="UWBa_zUoZqO4CrLL3pT2-111" value="" style="edgeStyle=none;rounded=0;orthogonalLoop=1;jettySize=auto;html=1;fontSize=16;exitX=1;exitY=0.5;exitDx=0;exitDy=0;entryX=0;entryY=0.5;entryDx=0;entryDy=0;" parent="dQCcz50sJK8iQ1qyOnzz-1" source="UWBa_zUoZqO4CrLL3pT2-40" target="UWBa_zUoZqO4CrLL3pT2-50" edge="1">
          <mxGeometry relative="1" as="geometry" />
        </mxCell>
        <mxCell id="UWBa_zUoZqO4CrLL3pT2-40" value="1" style="rounded=0;whiteSpace=wrap;html=1;fontSize=16;fillColor=#d5e8d4;strokeColor=#82b366;" parent="dQCcz50sJK8iQ1qyOnzz-1" vertex="1">
          <mxGeometry x="480" y="560" width="40" height="40" as="geometry" />
        </mxCell>
        <mxCell id="UWBa_zUoZqO4CrLL3pT2-117" value="" style="edgeStyle=none;rounded=0;orthogonalLoop=1;jettySize=auto;html=1;fontSize=16;entryX=0;entryY=0.5;entryDx=0;entryDy=0;exitX=1;exitY=0.5;exitDx=0;exitDy=0;" parent="dQCcz50sJK8iQ1qyOnzz-1" source="UWBa_zUoZqO4CrLL3pT2-45" target="UWBa_zUoZqO4CrLL3pT2-49" edge="1">
          <mxGeometry relative="1" as="geometry" />
        </mxCell>
        <mxCell id="UWBa_zUoZqO4CrLL3pT2-45" value="2" style="rounded=0;whiteSpace=wrap;html=1;fontSize=16;fillColor=#dae8fc;strokeColor=#6c8ebf;" parent="dQCcz50sJK8iQ1qyOnzz-1" vertex="1">
          <mxGeometry x="480" y="600" width="40" height="40" as="geometry" />
        </mxCell>
        <mxCell id="UWBa_zUoZqO4CrLL3pT2-115" value="" style="edgeStyle=none;rounded=0;orthogonalLoop=1;jettySize=auto;html=1;fontSize=16;" parent="dQCcz50sJK8iQ1qyOnzz-1" source="UWBa_zUoZqO4CrLL3pT2-46" target="UWBa_zUoZqO4CrLL3pT2-51" edge="1">
          <mxGeometry relative="1" as="geometry" />
        </mxCell>
        <mxCell id="UWBa_zUoZqO4CrLL3pT2-46" value="1" style="rounded=0;whiteSpace=wrap;html=1;fontSize=16;fillColor=#f8cecc;strokeColor=#b85450;" parent="dQCcz50sJK8iQ1qyOnzz-1" vertex="1">
          <mxGeometry x="480" y="660" width="40" height="40" as="geometry" />
        </mxCell>
        <mxCell id="UWBa_zUoZqO4CrLL3pT2-118" value="" style="edgeStyle=none;rounded=0;orthogonalLoop=1;jettySize=auto;html=1;fontSize=16;" parent="dQCcz50sJK8iQ1qyOnzz-1" source="UWBa_zUoZqO4CrLL3pT2-49" target="UWBa_zUoZqO4CrLL3pT2-57" edge="1">
          <mxGeometry relative="1" as="geometry" />
        </mxCell>
        <mxCell id="UWBa_zUoZqO4CrLL3pT2-49" value="2" style="rounded=0;whiteSpace=wrap;html=1;fontSize=16;fillColor=#dae8fc;strokeColor=#6c8ebf;" parent="dQCcz50sJK8iQ1qyOnzz-1" vertex="1">
          <mxGeometry x="560" y="560" width="40" height="40" as="geometry" />
        </mxCell>
        <mxCell id="UWBa_zUoZqO4CrLL3pT2-53" value="" style="edgeStyle=orthogonalEdgeStyle;rounded=0;orthogonalLoop=1;jettySize=auto;html=1;fontSize=16;" parent="dQCcz50sJK8iQ1qyOnzz-1" source="UWBa_zUoZqO4CrLL3pT2-50" target="UWBa_zUoZqO4CrLL3pT2-52" edge="1">
          <mxGeometry relative="1" as="geometry" />
        </mxCell>
        <mxCell id="UWBa_zUoZqO4CrLL3pT2-50" value="1" style="rounded=0;whiteSpace=wrap;html=1;fontSize=16;fillColor=#d5e8d4;strokeColor=#82b366;" parent="dQCcz50sJK8iQ1qyOnzz-1" vertex="1">
          <mxGeometry x="560" y="600" width="40" height="40" as="geometry" />
        </mxCell>
        <mxCell id="UWBa_zUoZqO4CrLL3pT2-54" value="" style="edgeStyle=orthogonalEdgeStyle;rounded=0;orthogonalLoop=1;jettySize=auto;html=1;fontSize=16;" parent="dQCcz50sJK8iQ1qyOnzz-1" source="UWBa_zUoZqO4CrLL3pT2-51" target="UWBa_zUoZqO4CrLL3pT2-52" edge="1">
          <mxGeometry relative="1" as="geometry" />
        </mxCell>
        <mxCell id="UWBa_zUoZqO4CrLL3pT2-51" value="1" style="rounded=0;whiteSpace=wrap;html=1;fontSize=16;fillColor=#f8cecc;strokeColor=#b85450;" parent="dQCcz50sJK8iQ1qyOnzz-1" vertex="1">
          <mxGeometry x="560" y="660" width="40" height="40" as="geometry" />
        </mxCell>
        <mxCell id="UWBa_zUoZqO4CrLL3pT2-60" value="" style="edgeStyle=orthogonalEdgeStyle;rounded=0;orthogonalLoop=1;jettySize=auto;html=1;fontSize=16;" parent="dQCcz50sJK8iQ1qyOnzz-1" source="UWBa_zUoZqO4CrLL3pT2-52" target="UWBa_zUoZqO4CrLL3pT2-58" edge="1">
          <mxGeometry relative="1" as="geometry" />
        </mxCell>
        <mxCell id="UWBa_zUoZqO4CrLL3pT2-52" value="2" style="rounded=0;whiteSpace=wrap;html=1;fontSize=16;fillColor=#f8cecc;strokeColor=#b85450;" parent="dQCcz50sJK8iQ1qyOnzz-1" vertex="1">
          <mxGeometry x="640" y="630" width="40" height="40" as="geometry" />
        </mxCell>
        <mxCell id="UWBa_zUoZqO4CrLL3pT2-59" value="" style="edgeStyle=orthogonalEdgeStyle;rounded=0;orthogonalLoop=1;jettySize=auto;html=1;fontSize=16;" parent="dQCcz50sJK8iQ1qyOnzz-1" source="UWBa_zUoZqO4CrLL3pT2-57" target="UWBa_zUoZqO4CrLL3pT2-58" edge="1">
          <mxGeometry relative="1" as="geometry" />
        </mxCell>
        <mxCell id="UWBa_zUoZqO4CrLL3pT2-57" value="2" style="rounded=0;whiteSpace=wrap;html=1;fontSize=16;fillColor=#dae8fc;strokeColor=#6c8ebf;" parent="dQCcz50sJK8iQ1qyOnzz-1" vertex="1">
          <mxGeometry x="640" y="560" width="40" height="40" as="geometry" />
        </mxCell>
        <mxCell id="UWBa_zUoZqO4CrLL3pT2-69" value="" style="rounded=0;orthogonalLoop=1;jettySize=auto;html=1;fontSize=16;entryX=0;entryY=0.5;entryDx=0;entryDy=0;exitX=1;exitY=0.5;exitDx=0;exitDy=0;" parent="dQCcz50sJK8iQ1qyOnzz-1" source="UWBa_zUoZqO4CrLL3pT2-58" target="UWBa_zUoZqO4CrLL3pT2-64" edge="1">
          <mxGeometry relative="1" as="geometry" />
        </mxCell>
        <mxCell id="UWBa_zUoZqO4CrLL3pT2-58" value="4" style="rounded=0;whiteSpace=wrap;html=1;fontSize=16;fillColor=#dae8fc;strokeColor=#6c8ebf;" parent="dQCcz50sJK8iQ1qyOnzz-1" vertex="1">
          <mxGeometry x="720" y="590" width="40" height="40" as="geometry" />
        </mxCell>
        <mxCell id="UWBa_zUoZqO4CrLL3pT2-75" value="" style="edgeStyle=none;rounded=0;orthogonalLoop=1;jettySize=auto;html=1;fontSize=16;" parent="dQCcz50sJK8iQ1qyOnzz-1" target="UWBa_zUoZqO4CrLL3pT2-66" edge="1">
          <mxGeometry relative="1" as="geometry">
            <mxPoint x="840" y="510" as="sourcePoint" />
          </mxGeometry>
        </mxCell>
        <mxCell id="UWBa_zUoZqO4CrLL3pT2-72" value="" style="edgeStyle=none;rounded=0;orthogonalLoop=1;jettySize=auto;html=1;fontSize=16;entryX=0;entryY=0.5;entryDx=0;entryDy=0;exitX=1;exitY=0.5;exitDx=0;exitDy=0;" parent="dQCcz50sJK8iQ1qyOnzz-1" source="UWBa_zUoZqO4CrLL3pT2-64" target="UWBa_zUoZqO4CrLL3pT2-65" edge="1">
          <mxGeometry relative="1" as="geometry" />
        </mxCell>
        <mxCell id="UWBa_zUoZqO4CrLL3pT2-64" value="4" style="rounded=0;whiteSpace=wrap;html=1;fontSize=16;fillColor=#dae8fc;strokeColor=#6c8ebf;" parent="dQCcz50sJK8iQ1qyOnzz-1" vertex="1">
          <mxGeometry x="800" y="520" width="40" height="40" as="geometry" />
        </mxCell>
        <mxCell id="UWBa_zUoZqO4CrLL3pT2-87" value="" style="edgeStyle=none;rounded=0;orthogonalLoop=1;jettySize=auto;html=1;fontSize=16;" parent="dQCcz50sJK8iQ1qyOnzz-1" source="UWBa_zUoZqO4CrLL3pT2-65" target="UWBa_zUoZqO4CrLL3pT2-79" edge="1">
          <mxGeometry relative="1" as="geometry" />
        </mxCell>
        <mxCell id="UWBa_zUoZqO4CrLL3pT2-65" value="4" style="rounded=0;whiteSpace=wrap;html=1;fontSize=16;fillColor=#dae8fc;strokeColor=#6c8ebf;" parent="dQCcz50sJK8iQ1qyOnzz-1" vertex="1">
          <mxGeometry x="880" y="480" width="40" height="40" as="geometry" />
        </mxCell>
        <mxCell id="UWBa_zUoZqO4CrLL3pT2-77" value="" style="edgeStyle=orthogonalEdgeStyle;rounded=0;orthogonalLoop=1;jettySize=auto;html=1;fontSize=16;" parent="dQCcz50sJK8iQ1qyOnzz-1" source="UWBa_zUoZqO4CrLL3pT2-66" target="UWBa_zUoZqO4CrLL3pT2-76" edge="1">
          <mxGeometry relative="1" as="geometry" />
        </mxCell>
        <mxCell id="UWBa_zUoZqO4CrLL3pT2-66" value="3" style="rounded=0;whiteSpace=wrap;html=1;fontSize=16;fillColor=#ffe6cc;strokeColor=#d79b00;" parent="dQCcz50sJK8iQ1qyOnzz-1" vertex="1">
          <mxGeometry x="880" y="520" width="40" height="40" as="geometry" />
        </mxCell>
        <mxCell id="UWBa_zUoZqO4CrLL3pT2-70" value="" style="edgeStyle=orthogonalEdgeStyle;rounded=0;orthogonalLoop=1;jettySize=auto;html=1;fontSize=16;" parent="dQCcz50sJK8iQ1qyOnzz-1" source="UWBa_zUoZqO4CrLL3pT2-67" target="UWBa_zUoZqO4CrLL3pT2-68" edge="1">
          <mxGeometry relative="1" as="geometry" />
        </mxCell>
        <mxCell id="UWBa_zUoZqO4CrLL3pT2-67" value="2" style="rounded=0;whiteSpace=wrap;html=1;fontSize=16;fillColor=#fff2cc;strokeColor=#d6b656;" parent="dQCcz50sJK8iQ1qyOnzz-1" vertex="1">
          <mxGeometry x="800" y="590" width="40" height="40" as="geometry" />
        </mxCell>
        <mxCell id="UWBa_zUoZqO4CrLL3pT2-78" value="" style="edgeStyle=orthogonalEdgeStyle;rounded=0;orthogonalLoop=1;jettySize=auto;html=1;fontSize=16;" parent="dQCcz50sJK8iQ1qyOnzz-1" source="UWBa_zUoZqO4CrLL3pT2-68" target="UWBa_zUoZqO4CrLL3pT2-76" edge="1">
          <mxGeometry relative="1" as="geometry" />
        </mxCell>
        <mxCell id="UWBa_zUoZqO4CrLL3pT2-68" value="2" style="rounded=0;whiteSpace=wrap;html=1;fontSize=16;fillColor=#fff2cc;strokeColor=#d6b656;" parent="dQCcz50sJK8iQ1qyOnzz-1" vertex="1">
          <mxGeometry x="880" y="590" width="40" height="40" as="geometry" />
        </mxCell>
        <mxCell id="UWBa_zUoZqO4CrLL3pT2-89" value="" style="edgeStyle=none;rounded=0;orthogonalLoop=1;jettySize=auto;html=1;fontSize=16;entryX=0;entryY=0.5;entryDx=0;entryDy=0;exitX=1;exitY=0.5;exitDx=0;exitDy=0;" parent="dQCcz50sJK8iQ1qyOnzz-1" source="UWBa_zUoZqO4CrLL3pT2-76" target="UWBa_zUoZqO4CrLL3pT2-80" edge="1">
          <mxGeometry relative="1" as="geometry" />
        </mxCell>
        <mxCell id="UWBa_zUoZqO4CrLL3pT2-76" value="5" style="rounded=0;whiteSpace=wrap;html=1;fontSize=16;fillColor=#ffe6cc;strokeColor=#d79b00;" parent="dQCcz50sJK8iQ1qyOnzz-1" vertex="1">
          <mxGeometry x="960" y="550" width="40" height="40" as="geometry" />
        </mxCell>
        <mxCell id="UWBa_zUoZqO4CrLL3pT2-86" value="" style="edgeStyle=none;rounded=0;orthogonalLoop=1;jettySize=auto;html=1;fontSize=16;entryX=0;entryY=0.75;entryDx=0;entryDy=0;exitX=1;exitY=0.5;exitDx=0;exitDy=0;" parent="dQCcz50sJK8iQ1qyOnzz-1" source="UWBa_zUoZqO4CrLL3pT2-79" target="UWBa_zUoZqO4CrLL3pT2-81" edge="1">
          <mxGeometry relative="1" as="geometry" />
        </mxCell>
        <mxCell id="UWBa_zUoZqO4CrLL3pT2-79" value="4" style="rounded=0;whiteSpace=wrap;html=1;fontSize=16;fillColor=#dae8fc;strokeColor=#6c8ebf;" parent="dQCcz50sJK8iQ1qyOnzz-1" vertex="1">
          <mxGeometry x="960" y="480" width="40" height="40" as="geometry" />
        </mxCell>
        <mxCell id="UWBa_zUoZqO4CrLL3pT2-85" value="" style="edgeStyle=orthogonalEdgeStyle;rounded=0;orthogonalLoop=1;jettySize=auto;html=1;fontSize=16;" parent="dQCcz50sJK8iQ1qyOnzz-1" source="UWBa_zUoZqO4CrLL3pT2-80" target="UWBa_zUoZqO4CrLL3pT2-82" edge="1">
          <mxGeometry relative="1" as="geometry" />
        </mxCell>
        <mxCell id="UWBa_zUoZqO4CrLL3pT2-80" value="5" style="rounded=0;whiteSpace=wrap;html=1;fontSize=16;fillColor=#ffe6cc;strokeColor=#d79b00;" parent="dQCcz50sJK8iQ1qyOnzz-1" vertex="1">
          <mxGeometry x="1040" y="480" width="40" height="40" as="geometry" />
        </mxCell>
        <mxCell id="UWBa_zUoZqO4CrLL3pT2-84" value="" style="edgeStyle=orthogonalEdgeStyle;rounded=0;orthogonalLoop=1;jettySize=auto;html=1;fontSize=16;" parent="dQCcz50sJK8iQ1qyOnzz-1" source="UWBa_zUoZqO4CrLL3pT2-81" target="UWBa_zUoZqO4CrLL3pT2-82" edge="1">
          <mxGeometry relative="1" as="geometry" />
        </mxCell>
        <mxCell id="UWBa_zUoZqO4CrLL3pT2-81" value="4" style="rounded=0;whiteSpace=wrap;html=1;fontSize=16;fillColor=#dae8fc;strokeColor=#6c8ebf;" parent="dQCcz50sJK8iQ1qyOnzz-1" vertex="1">
          <mxGeometry x="1040" y="550" width="40" height="40" as="geometry" />
        </mxCell>
        <mxCell id="UWBa_zUoZqO4CrLL3pT2-82" value="9" style="rounded=0;whiteSpace=wrap;html=1;fontSize=16;" parent="dQCcz50sJK8iQ1qyOnzz-1" vertex="1">
          <mxGeometry x="1130" y="510" width="40" height="40" as="geometry" />
        </mxCell>
        <mxCell id="UWBa_zUoZqO4CrLL3pT2-119" value="A" style="rounded=0;whiteSpace=wrap;html=1;fontSize=16;" parent="dQCcz50sJK8iQ1qyOnzz-1" vertex="1">
          <mxGeometry x="40" y="760" width="40" height="40" as="geometry" />
        </mxCell>
        <mxCell id="UWBa_zUoZqO4CrLL3pT2-120" value="D" style="rounded=0;whiteSpace=wrap;html=1;fontSize=16;" parent="dQCcz50sJK8iQ1qyOnzz-1" vertex="1">
          <mxGeometry x="40" y="800" width="40" height="40" as="geometry" />
        </mxCell>
        <mxCell id="UWBa_zUoZqO4CrLL3pT2-121" value="H" style="rounded=0;whiteSpace=wrap;html=1;fontSize=16;" parent="dQCcz50sJK8iQ1qyOnzz-1" vertex="1">
          <mxGeometry x="40" y="840" width="40" height="40" as="geometry" />
        </mxCell>
        <mxCell id="UWBa_zUoZqO4CrLL3pT2-122" value="I" style="rounded=0;whiteSpace=wrap;html=1;fontSize=16;" parent="dQCcz50sJK8iQ1qyOnzz-1" vertex="1">
          <mxGeometry x="40" y="880" width="40" height="40" as="geometry" />
        </mxCell>
        <mxCell id="UWBa_zUoZqO4CrLL3pT2-123" value="N" style="rounded=0;whiteSpace=wrap;html=1;fontSize=16;" parent="dQCcz50sJK8iQ1qyOnzz-1" vertex="1">
          <mxGeometry x="40" y="920" width="40" height="40" as="geometry" />
        </mxCell>
        <mxCell id="UWBa_zUoZqO4CrLL3pT2-124" value="Y" style="rounded=0;whiteSpace=wrap;html=1;fontSize=16;" parent="dQCcz50sJK8iQ1qyOnzz-1" vertex="1">
          <mxGeometry x="40" y="960" width="40" height="40" as="geometry" />
        </mxCell>
        <mxCell id="UWBa_zUoZqO4CrLL3pT2-125" value="00" style="rounded=0;whiteSpace=wrap;html=1;fontSize=16;fillColor=#ffe6cc;strokeColor=#d79b00;" parent="dQCcz50sJK8iQ1qyOnzz-1" vertex="1">
          <mxGeometry x="80" y="760" width="40" height="40" as="geometry" />
        </mxCell>
        <mxCell id="UWBa_zUoZqO4CrLL3pT2-126" value="110" style="rounded=0;whiteSpace=wrap;html=1;fontSize=16;fillColor=#d5e8d4;strokeColor=#82b366;" parent="dQCcz50sJK8iQ1qyOnzz-1" vertex="1">
          <mxGeometry x="80" y="800" width="40" height="40" as="geometry" />
        </mxCell>
        <mxCell id="UWBa_zUoZqO4CrLL3pT2-127" value="111" style="rounded=0;whiteSpace=wrap;html=1;fontSize=16;fillColor=#f8cecc;strokeColor=#b85450;" parent="dQCcz50sJK8iQ1qyOnzz-1" vertex="1">
          <mxGeometry x="80" y="840" width="40" height="40" as="geometry" />
        </mxCell>
        <mxCell id="UWBa_zUoZqO4CrLL3pT2-128" value="100" style="rounded=0;whiteSpace=wrap;html=1;fontSize=16;fillColor=#dae8fc;strokeColor=#6c8ebf;" parent="dQCcz50sJK8iQ1qyOnzz-1" vertex="1">
          <mxGeometry x="80" y="880" width="40" height="40" as="geometry" />
        </mxCell>
        <mxCell id="UWBa_zUoZqO4CrLL3pT2-129" value="01" style="rounded=0;whiteSpace=wrap;html=1;fontSize=16;fillColor=#fff2cc;strokeColor=#d6b656;" parent="dQCcz50sJK8iQ1qyOnzz-1" vertex="1">
          <mxGeometry x="80" y="920" width="40" height="40" as="geometry" />
        </mxCell>
        <mxCell id="UWBa_zUoZqO4CrLL3pT2-130" value="101" style="rounded=0;whiteSpace=wrap;html=1;fontSize=16;fillColor=#f5f5f5;strokeColor=#666666;fontColor=#333333;" parent="dQCcz50sJK8iQ1qyOnzz-1" vertex="1">
          <mxGeometry x="80" y="960" width="40" height="40" as="geometry" />
        </mxCell>
        <mxCell id="UWBa_zUoZqO4CrLL3pT2-131" value="0" style="text;html=1;align=center;verticalAlign=middle;resizable=0;points=[];autosize=1;fontSize=16;" parent="dQCcz50sJK8iQ1qyOnzz-1" vertex="1">
          <mxGeometry x="1090" y="470" width="20" height="20" as="geometry" />
        </mxCell>
        <mxCell id="UWBa_zUoZqO4CrLL3pT2-132" value="0" style="text;html=1;align=center;verticalAlign=middle;resizable=0;points=[];autosize=1;fontSize=16;" parent="dQCcz50sJK8iQ1qyOnzz-1" vertex="1">
          <mxGeometry x="930" y="520" width="20" height="20" as="geometry" />
        </mxCell>
        <mxCell id="UWBa_zUoZqO4CrLL3pT2-134" value="0" style="text;html=1;align=center;verticalAlign=middle;resizable=0;points=[];autosize=1;fontSize=16;" parent="dQCcz50sJK8iQ1qyOnzz-1" vertex="1">
          <mxGeometry x="690" y="560" width="20" height="20" as="geometry" />
        </mxCell>
        <mxCell id="UWBa_zUoZqO4CrLL3pT2-135" value="0" style="text;html=1;align=center;verticalAlign=middle;resizable=0;points=[];autosize=1;fontSize=16;" parent="dQCcz50sJK8iQ1qyOnzz-1" vertex="1">
          <mxGeometry x="600" y="600" width="20" height="20" as="geometry" />
        </mxCell>
        <mxCell id="UWBa_zUoZqO4CrLL3pT2-136" value="0" style="text;html=1;align=center;verticalAlign=middle;resizable=0;points=[];autosize=1;fontSize=16;" parent="dQCcz50sJK8iQ1qyOnzz-1" vertex="1">
          <mxGeometry x="350" y="630" width="20" height="20" as="geometry" />
        </mxCell>
        <mxCell id="UWBa_zUoZqO4CrLL3pT2-137" value="1" style="text;html=1;align=center;verticalAlign=middle;resizable=0;points=[];autosize=1;fontSize=16;" parent="dQCcz50sJK8iQ1qyOnzz-1" vertex="1">
          <mxGeometry x="350" y="710" width="20" height="20" as="geometry" />
        </mxCell>
        <mxCell id="UWBa_zUoZqO4CrLL3pT2-138" value="1" style="text;html=1;align=center;verticalAlign=middle;resizable=0;points=[];autosize=1;fontSize=16;" parent="dQCcz50sJK8iQ1qyOnzz-1" vertex="1">
          <mxGeometry x="690" y="660" width="20" height="20" as="geometry" />
        </mxCell>
        <mxCell id="UWBa_zUoZqO4CrLL3pT2-139" value="1" style="text;html=1;align=center;verticalAlign=middle;resizable=0;points=[];autosize=1;fontSize=16;" parent="dQCcz50sJK8iQ1qyOnzz-1" vertex="1">
          <mxGeometry x="930" y="620" width="20" height="20" as="geometry" />
        </mxCell>
        <mxCell id="UWBa_zUoZqO4CrLL3pT2-140" value="1" style="text;html=1;align=center;verticalAlign=middle;resizable=0;points=[];autosize=1;fontSize=16;" parent="dQCcz50sJK8iQ1qyOnzz-1" vertex="1">
          <mxGeometry x="1090" y="590" width="20" height="20" as="geometry" />
        </mxCell>
        <mxCell id="UWBa_zUoZqO4CrLL3pT2-141" value="2" style="rounded=0;whiteSpace=wrap;html=1;fontSize=16;" parent="dQCcz50sJK8iQ1qyOnzz-1" vertex="1">
          <mxGeometry x="120" y="760" width="40" height="40" as="geometry" />
        </mxCell>
        <mxCell id="UWBa_zUoZqO4CrLL3pT2-142" value="3" style="rounded=0;whiteSpace=wrap;html=1;fontSize=16;" parent="dQCcz50sJK8iQ1qyOnzz-1" vertex="1">
          <mxGeometry x="120" y="800" width="40" height="40" as="geometry" />
        </mxCell>
        <mxCell id="UWBa_zUoZqO4CrLL3pT2-143" value="3" style="rounded=0;whiteSpace=wrap;html=1;fontSize=16;" parent="dQCcz50sJK8iQ1qyOnzz-1" vertex="1">
          <mxGeometry x="120" y="840" width="40" height="40" as="geometry" />
        </mxCell>
        <mxCell id="UWBa_zUoZqO4CrLL3pT2-144" value="3" style="rounded=0;whiteSpace=wrap;html=1;fontSize=16;" parent="dQCcz50sJK8iQ1qyOnzz-1" vertex="1">
          <mxGeometry x="120" y="880" width="40" height="40" as="geometry" />
        </mxCell>
        <mxCell id="UWBa_zUoZqO4CrLL3pT2-145" value="2" style="rounded=0;whiteSpace=wrap;html=1;fontSize=16;" parent="dQCcz50sJK8iQ1qyOnzz-1" vertex="1">
          <mxGeometry x="120" y="920" width="40" height="40" as="geometry" />
        </mxCell>
        <mxCell id="UWBa_zUoZqO4CrLL3pT2-146" value="3" style="rounded=0;whiteSpace=wrap;html=1;fontSize=16;" parent="dQCcz50sJK8iQ1qyOnzz-1" vertex="1">
          <mxGeometry x="120" y="960" width="40" height="40" as="geometry" />
        </mxCell>
        <mxCell id="UWBa_zUoZqO4CrLL3pT2-147" value="3" style="rounded=0;whiteSpace=wrap;html=1;fontSize=16;fillColor=#ffe6cc;strokeColor=#d79b00;" parent="dQCcz50sJK8iQ1qyOnzz-1" vertex="1">
          <mxGeometry x="160" y="760" width="40" height="40" as="geometry" />
        </mxCell>
        <mxCell id="UWBa_zUoZqO4CrLL3pT2-148" value="1" style="rounded=0;whiteSpace=wrap;html=1;fontSize=16;fillColor=#d5e8d4;strokeColor=#82b366;" parent="dQCcz50sJK8iQ1qyOnzz-1" vertex="1">
          <mxGeometry x="160" y="800" width="40" height="40" as="geometry" />
        </mxCell>
        <mxCell id="UWBa_zUoZqO4CrLL3pT2-149" value="1" style="rounded=0;whiteSpace=wrap;html=1;fontSize=16;fillColor=#f8cecc;strokeColor=#b85450;" parent="dQCcz50sJK8iQ1qyOnzz-1" vertex="1">
          <mxGeometry x="160" y="840" width="40" height="40" as="geometry" />
        </mxCell>
        <mxCell id="UWBa_zUoZqO4CrLL3pT2-150" value="1" style="rounded=0;whiteSpace=wrap;html=1;fontSize=16;fillColor=#dae8fc;strokeColor=#6c8ebf;" parent="dQCcz50sJK8iQ1qyOnzz-1" vertex="1">
          <mxGeometry x="160" y="880" width="40" height="40" as="geometry" />
        </mxCell>
        <mxCell id="UWBa_zUoZqO4CrLL3pT2-151" value="2" style="rounded=0;whiteSpace=wrap;html=1;fontSize=16;fillColor=#fff2cc;strokeColor=#d6b656;" parent="dQCcz50sJK8iQ1qyOnzz-1" vertex="1">
          <mxGeometry x="160" y="920" width="40" height="40" as="geometry" />
        </mxCell>
        <mxCell id="UWBa_zUoZqO4CrLL3pT2-152" value="1" style="rounded=0;whiteSpace=wrap;html=1;fontSize=16;fillColor=#f5f5f5;strokeColor=#666666;fontColor=#333333;" parent="dQCcz50sJK8iQ1qyOnzz-1" vertex="1">
          <mxGeometry x="160" y="960" width="40" height="40" as="geometry" />
        </mxCell>
        <mxCell id="UWBa_zUoZqO4CrLL3pT2-153" value="1" style="text;html=1;align=center;verticalAlign=middle;resizable=0;points=[];autosize=1;fontSize=16;" parent="dQCcz50sJK8iQ1qyOnzz-1" vertex="1">
          <mxGeometry x="610" y="690" width="20" height="20" as="geometry" />
        </mxCell>
        <mxCell id="byntQnALanBBYsCpMs17-0" value="6" style="rounded=0;whiteSpace=wrap;html=1;fontSize=16;" parent="dQCcz50sJK8iQ1qyOnzz-1" vertex="1">
          <mxGeometry x="240" y="760" width="40" height="40" as="geometry" />
        </mxCell>
        <mxCell id="byntQnALanBBYsCpMs17-1" value="3" style="rounded=0;whiteSpace=wrap;html=1;fontSize=16;" parent="dQCcz50sJK8iQ1qyOnzz-1" vertex="1">
          <mxGeometry x="240" y="800" width="40" height="40" as="geometry" />
        </mxCell>
        <mxCell id="byntQnALanBBYsCpMs17-2" value="3" style="rounded=0;whiteSpace=wrap;html=1;fontSize=16;" parent="dQCcz50sJK8iQ1qyOnzz-1" vertex="1">
          <mxGeometry x="240" y="840" width="40" height="40" as="geometry" />
        </mxCell>
        <mxCell id="byntQnALanBBYsCpMs17-3" value="3" style="rounded=0;whiteSpace=wrap;html=1;fontSize=16;" parent="dQCcz50sJK8iQ1qyOnzz-1" vertex="1">
          <mxGeometry x="240" y="880" width="40" height="40" as="geometry" />
        </mxCell>
        <mxCell id="byntQnALanBBYsCpMs17-4" value="4" style="rounded=0;whiteSpace=wrap;html=1;fontSize=16;" parent="dQCcz50sJK8iQ1qyOnzz-1" vertex="1">
          <mxGeometry x="240" y="920" width="40" height="40" as="geometry" />
        </mxCell>
        <mxCell id="byntQnALanBBYsCpMs17-5" value="3" style="rounded=0;whiteSpace=wrap;html=1;fontSize=16;" parent="dQCcz50sJK8iQ1qyOnzz-1" vertex="1">
          <mxGeometry x="240" y="960" width="40" height="40" as="geometry" />
        </mxCell>
        <mxCell id="ucYv04D6_jR2DtYbOHDA-0" value="" style="edgeStyle=orthogonalEdgeStyle;rounded=0;orthogonalLoop=1;jettySize=auto;html=1;" parent="dQCcz50sJK8iQ1qyOnzz-1" source="ucYv04D6_jR2DtYbOHDA-1" target="ucYv04D6_jR2DtYbOHDA-4" edge="1">
          <mxGeometry relative="1" as="geometry" />
        </mxCell>
        <mxCell id="ucYv04D6_jR2DtYbOHDA-1" value="22" style="rounded=0;whiteSpace=wrap;html=1;fontSize=16;" parent="dQCcz50sJK8iQ1qyOnzz-1" vertex="1">
          <mxGeometry x="360" y="850" width="40" height="40" as="geometry" />
        </mxCell>
        <mxCell id="ucYv04D6_jR2DtYbOHDA-2" value="" style="edgeStyle=orthogonalEdgeStyle;rounded=0;orthogonalLoop=1;jettySize=auto;html=1;" parent="dQCcz50sJK8iQ1qyOnzz-1" source="ucYv04D6_jR2DtYbOHDA-3" target="ucYv04D6_jR2DtYbOHDA-4" edge="1">
          <mxGeometry relative="1" as="geometry" />
        </mxCell>
        <mxCell id="ucYv04D6_jR2DtYbOHDA-3" value="9" style="rounded=0;whiteSpace=wrap;html=1;fontSize=16;" parent="dQCcz50sJK8iQ1qyOnzz-1" vertex="1">
          <mxGeometry x="360" y="890" width="40" height="40" as="geometry" />
        </mxCell>
        <mxCell id="ucYv04D6_jR2DtYbOHDA-4" value="2.4" style="rounded=0;whiteSpace=wrap;html=1;fontSize=16;" parent="dQCcz50sJK8iQ1qyOnzz-1" vertex="1">
          <mxGeometry x="460" y="870" width="40" height="40" as="geometry" />
        </mxCell>
        <mxCell id="ucYv04D6_jR2DtYbOHDA-5" value="Lavg" style="rounded=0;whiteSpace=wrap;html=1;fontSize=16;fillColor=#fad9d5;strokeColor=#ae4132;fontStyle=1" parent="dQCcz50sJK8iQ1qyOnzz-1" vertex="1">
          <mxGeometry x="400" y="780" width="100" height="40" as="geometry" />
        </mxCell>
        <mxCell id="hFVONovAWdC2qdHyWSdS-0" value="00" style="rounded=0;whiteSpace=wrap;html=1;fontSize=16;fillColor=#ffe6cc;strokeColor=#d79b00;" parent="dQCcz50sJK8iQ1qyOnzz-1" vertex="1">
          <mxGeometry x="440" y="940" width="40" height="40" as="geometry" />
        </mxCell>
        <mxCell id="hFVONovAWdC2qdHyWSdS-1" value="110" style="rounded=0;whiteSpace=wrap;html=1;fontSize=16;fillColor=#d5e8d4;strokeColor=#82b366;" parent="dQCcz50sJK8iQ1qyOnzz-1" vertex="1">
          <mxGeometry x="480" y="940" width="40" height="40" as="geometry" />
        </mxCell>
        <mxCell id="hFVONovAWdC2qdHyWSdS-2" value="111" style="rounded=0;whiteSpace=wrap;html=1;fontSize=16;fillColor=#f8cecc;strokeColor=#b85450;" parent="dQCcz50sJK8iQ1qyOnzz-1" vertex="1">
          <mxGeometry x="520" y="940" width="40" height="40" as="geometry" />
        </mxCell>
        <mxCell id="hFVONovAWdC2qdHyWSdS-3" value="100" style="rounded=0;whiteSpace=wrap;html=1;fontSize=16;fillColor=#dae8fc;strokeColor=#6c8ebf;" parent="dQCcz50sJK8iQ1qyOnzz-1" vertex="1">
          <mxGeometry x="560" y="940" width="40" height="40" as="geometry" />
        </mxCell>
        <mxCell id="hFVONovAWdC2qdHyWSdS-4" value="01" style="rounded=0;whiteSpace=wrap;html=1;fontSize=16;fillColor=#fff2cc;strokeColor=#d6b656;" parent="dQCcz50sJK8iQ1qyOnzz-1" vertex="1">
          <mxGeometry x="600" y="940" width="40" height="40" as="geometry" />
        </mxCell>
        <mxCell id="hFVONovAWdC2qdHyWSdS-5" value="101" style="rounded=0;whiteSpace=wrap;html=1;fontSize=16;fillColor=#f5f5f5;strokeColor=#666666;fontColor=#333333;" parent="dQCcz50sJK8iQ1qyOnzz-1" vertex="1">
          <mxGeometry x="640" y="940" width="40" height="40" as="geometry" />
        </mxCell>
      </root>
    </mxGraphModel>
  </diagram>
</mxfile>
